<svg xmlns="http://www.w3.org/2000/svg" version="1.1" xmlns:xlink="http://www.w3.org/1999/xlink" xmlns:svgjs="http://svgjs.com/svgjs" width="102" height="112"><svg width="102" height="112" viewBox="0 0 102 112" fill="none" xmlns="http://www.w3.org/2000/svg">
<path d="M94.4014 53.6134C94.552 53.9747 98.1534 59.1681 94.5987 66.5881C99.204 63.1507 101.032 64.212 101.445 63.02C100.589 57.46 96.5254 54.8241 94.4014 53.6134Z" fill="#96A0A5"></path>
<path d="M86.892 85.6493C89.4013 82.5013 95.6586 77.3986 101.44 76.6399V74.1053C101.44 74.1053 90.592 75.5466 85.4653 83.0973C84.6946 83.856 86.7173 85.864 86.892 85.6493Z" fill="#BF1B2C"></path>
<path d="M86.556 83.264C90.7 78.096 97.6307 74.668 101.44 74.2V64.6C101.44 64.6 89.42 66.9267 84.3867 73.252C81.5947 77.5894 85.8107 84.192 86.556 83.264Z" fill="#0C3B66"></path>
<path d="M89.1426 81.0494C84.4733 77.604 83.5933 72.7347 83.744 72.5067C80.1053 75.9773 80.976 87.2961 86.236 91.5547C91.1973 95.5707 96.9066 86.3427 96.9066 86.3427C95.26 84.6733 91.968 82.8067 89.1426 81.0494Z" fill="#96A0A5"></path>
<path d="M83.6133 74.7947C87.816 68.8733 97.8107 65.328 101.44 65.1387V63.0134C101.44 63.0134 91.2533 64.2707 84.0467 71.6214C83.8693 72.4387 83.5027 73.8667 83.6133 74.7947Z" fill="#D1E5F7"></path>
<path d="M14.828 85.6493C11.78 81.9013 6.00269 77.5506 0.278687 76.3386V74.1053C0.278687 74.1053 11.124 75.5466 16.2547 83.0973C17.024 83.856 15.004 85.864 14.828 85.6493Z" fill="#BF1B2C"></path>
<path d="M15.1853 83.3307C11.492 78.4053 4.73069 75.0907 0.278687 74.2V64.6C0.278687 64.6 12.296 66.9267 17.332 73.252C20.1227 77.5893 15.9 84.284 15.1853 83.3307Z" fill="#0C3B66"></path>
<path d="M12.576 81.0494C17.244 77.604 18.124 72.7347 17.9747 72.5067C21.6147 75.9773 20.744 87.296 15.484 91.5547C10.5227 95.5707 5.12403 86.3507 5.12403 86.3507C6.76936 84.6787 9.7507 82.8067 12.576 81.0494ZM7.3227 53.6134C7.1707 53.9747 3.56668 59.168 7.12535 66.588C2.51735 63.1507 0.690686 64.212 0.278687 63.02C1.13469 57.46 5.19603 54.824 7.3227 53.6134Z" fill="#96A0A5"></path>
<path d="M18.108 74.7947C13.904 68.8733 3.90802 65.328 0.278687 65.1387V63.0134C0.278687 63.0134 10.468 64.2707 17.672 71.6214C17.848 72.4387 18.2147 73.8667 18.108 74.7947Z" fill="#D1E5F7"></path>
<path d="M5.11865 87.3601C22.288 87.7774 28.6467 99.4414 49.6693 99.4414C69.888 99.4414 72.3613 89.4268 96.9346 86.6908V98.7667C80.684 98.7667 66.6733 111.74 50.1053 111.117C34.4787 110.529 16.48 99.4361 5.11865 98.9974V87.3601Z" fill="#0C3B66"></path>
<path d="M5.11865 98.1066C6.15599 98.2146 7.53998 98.5747 9.30132 98.9547C24.4013 102.491 34.6453 108.695 50.9213 109.84C68.8786 108.843 81.8253 98.7826 96.9346 98.084V100.107C80.7626 101.661 71.556 110.488 50.9213 111.899C32.176 110.527 18.008 102.159 5.11865 100.34V98.1066Z" fill="#BF1B2C"></path>
<path d="M5.11865 86.348C18.12 87.8253 33.9186 96.936 50.9213 98.7747C67.9493 97.7947 73.3226 90.1586 96.9346 86.2733V88.628C76.432 91.4987 67.5413 99.92 50.9213 100.719C31.9973 98.8907 21.5053 91.3213 5.11865 88.628V86.348Z" fill="#D1E5F7"></path>
<path d="M10.5413 93.0868L10.16 94.5054L10.0707 94.4801C10.116 94.2015 10.1213 93.9708 10.0893 93.7881C10.0573 93.6068 9.98667 93.4508 9.87333 93.3201C9.76 93.1894 9.63066 93.1014 9.48266 93.0614C9.31466 93.0174 9.15866 93.0454 9.01466 93.1454C8.87199 93.2428 8.77866 93.3734 8.73333 93.5374C8.69999 93.6601 8.70532 93.7841 8.74666 93.9067C8.80532 94.0827 8.98799 94.3494 9.29732 94.7001C9.54666 94.9868 9.71199 95.2027 9.79332 95.3427C9.87732 95.4814 9.92799 95.6321 9.94799 95.7961C9.96932 95.9628 9.95732 96.1268 9.91466 96.2908C9.82932 96.6001 9.66133 96.8441 9.40666 97.0188C9.156 97.1895 8.87999 97.2361 8.57732 97.1534C8.48265 97.1308 8.39599 97.0974 8.31599 97.0561C8.26799 97.0334 8.17466 96.9694 8.03466 96.8641C7.89466 96.7601 7.80665 96.7001 7.76265 96.6881C7.72132 96.6775 7.68533 96.6854 7.65466 96.7081C7.624 96.7308 7.59066 96.7908 7.55199 96.8828L7.46399 96.8601L7.84265 95.4534L7.93199 95.4761C7.89332 95.7814 7.89066 96.0161 7.92133 96.1828C7.95333 96.3468 8.02932 96.4961 8.14666 96.6334C8.26799 96.7668 8.416 96.8601 8.59067 96.9054C8.78933 96.9588 8.96666 96.9361 9.11733 96.8334C9.27066 96.7308 9.372 96.5908 9.42133 96.4081C9.448 96.3081 9.45333 96.2015 9.43466 96.0855C9.41999 95.9735 9.37733 95.8574 9.308 95.7427C9.26133 95.6654 9.12532 95.4948 8.89599 95.2228C8.66932 94.9508 8.51199 94.7388 8.42665 94.5894C8.33865 94.4441 8.28399 94.2908 8.25999 94.1321C8.23865 93.9761 8.24932 93.8107 8.29465 93.6427C8.37199 93.3481 8.53066 93.1201 8.76799 92.9561C9.00666 92.7894 9.26398 92.7441 9.54265 92.8201C9.71598 92.8668 9.88666 92.9694 10.052 93.1281C10.1293 93.2014 10.1853 93.2454 10.2213 93.2534C10.2653 93.2668 10.3027 93.2587 10.3373 93.2347C10.3707 93.2094 10.4107 93.1534 10.452 93.0614L10.5413 93.0868Z" fill="white"></path>
<path d="M12.7386 93.9494C12.4439 93.8761 12.1746 93.9547 11.9292 94.1854C11.6226 94.4694 11.3879 94.9427 11.2239 95.5987C11.0572 96.2734 11.0413 96.8214 11.1799 97.2414C11.2879 97.5614 11.4866 97.7587 11.7746 97.8307C12.0839 97.9067 12.3759 97.82 12.6506 97.5667C12.9292 97.3147 13.1479 96.8627 13.3106 96.2107C13.4853 95.5041 13.5079 94.9507 13.3719 94.5467C13.2626 94.2294 13.0519 94.0294 12.7386 93.9494ZM12.8386 93.74C13.2653 93.8467 13.5839 94.1414 13.7946 94.628C14.0066 95.112 14.0372 95.6573 13.8839 96.268C13.7279 96.8947 13.4412 97.376 13.0252 97.712C12.6066 98.048 12.1732 98.16 11.7266 98.048C11.2746 97.9347 10.9439 97.6387 10.7359 97.156C10.5293 96.6747 10.5053 96.1134 10.6666 95.4734C10.8306 94.8174 11.1413 94.3253 11.5986 94.0013C11.9959 93.7187 12.4119 93.632 12.8386 93.74Z" fill="white"></path>
<path d="M17.0573 95.12L17.088 95.0107L18.2413 95.3414L18.2107 95.4507L18.0867 95.4147C17.9587 95.3787 17.8413 95.4173 17.7333 95.5347C17.6827 95.5867 17.624 95.7267 17.5587 95.952L17.0827 97.612C16.9654 98.0227 16.84 98.332 16.7107 98.5427C16.5827 98.7467 16.4 98.9054 16.1613 99.0134C15.9267 99.1214 15.6453 99.1254 15.32 99.0334C14.9653 98.9307 14.716 98.7747 14.576 98.568C14.4374 98.36 14.3653 98.1174 14.3627 97.8321C14.3627 97.6387 14.4347 97.2947 14.576 96.8027L15.0347 95.2027C15.1053 94.9534 15.1253 94.78 15.0907 94.6854C15.06 94.5894 14.9827 94.5254 14.86 94.4907L14.736 94.4574L14.768 94.344L16.176 94.7467L16.144 94.8587L16.02 94.8227C15.884 94.7853 15.7733 94.8107 15.684 94.9C15.6227 94.9614 15.56 95.108 15.4947 95.336L14.9827 97.1173C14.9387 97.2773 14.8973 97.464 14.8627 97.6733C14.8267 97.8867 14.8213 98.0574 14.8507 98.1907C14.8773 98.3214 14.9387 98.4414 15.032 98.5494C15.1253 98.6574 15.2547 98.7347 15.4213 98.7827C15.636 98.8414 15.844 98.8387 16.044 98.7707C16.2454 98.7013 16.4014 98.5854 16.5147 98.4214C16.6307 98.2574 16.7493 97.9573 16.8747 97.5227L17.3494 95.868C17.424 95.612 17.4467 95.4453 17.42 95.368C17.3827 95.264 17.3014 95.192 17.1787 95.156L17.0573 95.12Z" fill="white"></path>
<path d="M21.1946 96.2294L20.9346 97.1947L20.8453 97.1667C20.8786 96.9921 20.8933 96.8641 20.884 96.7827C20.8706 96.6521 20.8306 96.5467 20.764 96.4694C20.7 96.3881 20.6 96.3267 20.4666 96.2854L20.0106 96.1467L19.0586 99.2574C18.984 99.5054 18.9573 99.6667 18.9826 99.7427C19.016 99.8454 19.096 99.9174 19.2213 99.9534L19.3346 99.9894L19.3013 100.099L17.9253 99.6787L17.96 99.5694L18.076 99.6054C18.212 99.6454 18.3253 99.6227 18.4146 99.5387C18.468 99.4841 18.5293 99.3441 18.6013 99.1161L19.5506 96.0067L19.1613 95.8854C19.012 95.8401 18.8986 95.8228 18.828 95.8294C18.732 95.8428 18.64 95.8934 18.5466 95.9827C18.4546 96.0734 18.3746 96.2081 18.3066 96.3907L18.2173 96.3628L18.5466 95.42L21.1946 96.2294Z" fill="white"></path>
<path d="M21.8107 98.4934L23.308 98.9801L23.684 97.8227C23.7507 97.6147 23.7853 97.4761 23.7853 97.4027C23.7853 97.3481 23.768 97.2947 23.7293 97.2441C23.676 97.1721 23.612 97.1254 23.5347 97.1001L23.4213 97.0614L23.4587 96.9521L24.836 97.4027L24.8 97.512L24.6853 97.4734C24.6107 97.4507 24.5307 97.4481 24.448 97.4721C24.3854 97.4867 24.336 97.5254 24.296 97.584C24.2573 97.6427 24.2053 97.7707 24.14 97.9707L23.292 100.581C23.2253 100.788 23.1933 100.924 23.192 100.996C23.192 101.052 23.2094 101.105 23.248 101.157C23.3014 101.229 23.3654 101.275 23.4427 101.3L23.5547 101.339L23.52 101.449L22.1413 101.001L22.1774 100.891L22.292 100.927C22.424 100.969 22.536 100.952 22.628 100.872C22.6867 100.821 22.7573 100.676 22.836 100.432L23.2373 99.2001L21.74 98.7134L21.3387 99.9454C21.2733 100.153 21.2387 100.292 21.2373 100.363C21.2373 100.417 21.2573 100.471 21.296 100.524C21.3493 100.593 21.4133 100.64 21.488 100.665L21.6053 100.704L21.5693 100.813L20.1893 100.365L20.2253 100.255L20.3387 100.292C20.472 100.335 20.584 100.317 20.676 100.24C20.7347 100.189 20.8027 100.04 20.8814 99.8001L21.7307 97.1867C21.7987 96.98 21.8333 96.8414 21.8333 96.7667C21.8333 96.7134 21.8134 96.6601 21.7774 96.6081C21.7227 96.5387 21.6587 96.4907 21.5827 96.468L21.468 96.4294L21.504 96.3187L22.884 96.7667L22.848 96.8774L22.7333 96.8387C22.656 96.8161 22.576 96.8134 22.4933 96.8361C22.4347 96.8547 22.3854 96.8907 22.344 96.9494C22.3054 97.0081 22.252 97.1361 22.188 97.3361L21.8107 98.4934Z" fill="white"></path>
<path d="M29.12 98.6626L28.7467 100.061L28.6734 100.037C28.7094 99.5946 28.6667 99.252 28.5441 99.0106C28.4187 98.7693 28.2294 98.6093 27.9761 98.5266C27.7614 98.4573 27.5454 98.4626 27.328 98.544C27.1107 98.624 26.9054 98.7959 26.7081 99.0613C26.5134 99.3279 26.3414 99.6813 26.2001 100.128C26.0814 100.493 26.024 100.824 26.0307 101.124C26.036 101.424 26.1094 101.675 26.2494 101.879C26.3907 102.084 26.5827 102.225 26.8227 102.303C27.0334 102.371 27.2361 102.376 27.4334 102.317C27.6294 102.256 27.8761 102.087 28.1774 101.816L28.2321 101.9C27.9534 102.207 27.6787 102.409 27.4094 102.507C27.1401 102.604 26.856 102.604 26.56 102.507C26.0267 102.335 25.6934 101.951 25.5627 101.36C25.464 100.919 25.496 100.445 25.6587 99.9453C25.7907 99.5413 25.9827 99.192 26.2374 98.9026C26.4907 98.6106 26.7747 98.4133 27.0854 98.3093C27.4014 98.2039 27.7067 98.2013 28.0067 98.2986C28.2401 98.372 28.4454 98.5213 28.6267 98.736C28.6774 98.8026 28.7187 98.8413 28.7467 98.8493C28.7907 98.8626 28.8321 98.8573 28.8774 98.8293C28.9361 98.788 28.9894 98.7239 29.0387 98.6346L29.12 98.6626Z" fill="white"></path>
<path d="M29.7987 101.06L31.296 101.547L31.6707 100.389C31.7387 100.181 31.7734 100.043 31.7734 99.9707C31.7734 99.9147 31.7534 99.8613 31.716 99.8093C31.6627 99.7373 31.5973 99.692 31.524 99.6667L31.408 99.6307L31.444 99.5187L32.8213 99.968L32.7853 100.079L32.6734 100.04C32.596 100.017 32.5173 100.017 32.4333 100.04C32.372 100.053 32.3227 100.092 32.2814 100.151C32.2427 100.209 32.192 100.337 32.128 100.537L31.2787 103.149C31.2134 103.355 31.1787 103.493 31.1774 103.564C31.1774 103.619 31.196 103.672 31.2333 103.723C31.288 103.795 31.3533 103.844 31.428 103.867L31.544 103.905L31.5067 104.016L30.128 103.567L30.1653 103.455L30.2787 103.493C30.4107 103.536 30.5214 103.519 30.6147 103.439C30.6747 103.391 30.744 103.244 30.8213 102.999L31.224 101.769L29.7253 101.283L29.3253 102.515C29.2587 102.719 29.2253 102.857 29.2253 102.929C29.2227 102.985 29.244 103.037 29.2827 103.091C29.336 103.16 29.4 103.208 29.476 103.232L29.592 103.269L29.556 103.38L28.176 102.932L28.212 102.821L28.3253 102.86C28.46 102.901 28.5707 102.883 28.6627 102.807C28.7213 102.755 28.7907 102.609 28.8694 102.365L29.7173 99.7534C29.784 99.5454 29.8187 99.408 29.82 99.336C29.82 99.28 29.8027 99.2254 29.764 99.1747C29.7093 99.1054 29.6454 99.0574 29.5694 99.0334L29.4533 98.9947L29.4893 98.8854L30.8694 99.3334L30.8347 99.444L30.7187 99.4054C30.6427 99.3827 30.564 99.3827 30.48 99.4054C30.4214 99.42 30.3707 99.4561 30.3293 99.5187C30.292 99.5747 30.2387 99.7027 30.1734 99.9027L29.7987 101.06Z" fill="white"></path>
<path d="M33.16 104.381L33.124 104.492L31.7386 104.069L31.7706 103.959L31.8853 103.992C32.02 104.033 32.1306 104.016 32.2213 103.936C32.2786 103.883 32.3453 103.736 32.4213 103.491L33.224 100.863C33.288 100.655 33.3186 100.516 33.3173 100.443C33.3173 100.389 33.2986 100.335 33.26 100.284C33.204 100.215 33.1386 100.168 33.0626 100.145L32.9467 100.109L32.9813 100L34.3693 100.424L34.336 100.535L34.2173 100.499C34.0853 100.46 33.9746 100.479 33.884 100.557C33.8253 100.609 33.7573 100.757 33.684 101.003L32.8787 103.631C32.8173 103.836 32.7853 103.977 32.7853 104.048C32.7853 104.103 32.8067 104.156 32.848 104.208C32.9013 104.276 32.9653 104.323 33.0427 104.348L33.16 104.381Z" fill="white"></path>
<path d="M34.4199 100.457L35.2986 100.727L36.3453 104.384L37.0626 102.039C37.14 101.787 37.1653 101.625 37.14 101.549C37.1066 101.447 37.0253 101.375 36.9 101.339L36.7866 101.303L36.8199 101.193L37.948 101.536L37.9133 101.647L37.8 101.613C37.6626 101.572 37.5493 101.592 37.46 101.68C37.4066 101.733 37.344 101.875 37.2733 102.103L36.2253 105.532L36.14 105.505L35.0053 101.575L34.2386 104.083C34.1613 104.333 34.136 104.493 34.1613 104.569C34.1946 104.671 34.2746 104.743 34.4013 104.781L34.516 104.815L34.4813 104.927L33.3546 104.581L33.3879 104.471L33.5 104.504C33.6386 104.548 33.7533 104.525 33.8426 104.439C33.896 104.387 33.9586 104.245 34.028 104.017L34.8933 101.188C34.8413 101.021 34.7986 100.909 34.7626 100.849C34.7266 100.791 34.6693 100.727 34.5866 100.66C34.5453 100.629 34.4786 100.599 34.3839 100.571L34.4199 100.457Z" fill="white"></path>
<path d="M39.3987 104.612L39.2893 102.801L38.2733 104.309L39.3987 104.612ZM39.404 104.853L38.1387 104.515L37.7413 105.104C37.6453 105.247 37.5853 105.36 37.5653 105.44C37.5467 105.501 37.5547 105.563 37.5907 105.624C37.6253 105.683 37.7187 105.741 37.8747 105.797L37.844 105.911L36.8134 105.633L36.8427 105.521C36.9894 105.527 37.088 105.511 37.1413 105.475C37.2493 105.399 37.3907 105.227 37.572 104.957L39.6293 101.881L39.7134 101.905L39.9373 105.628C39.9547 105.928 39.9907 106.128 40.0427 106.233C40.096 106.333 40.1893 106.408 40.3187 106.453L40.2893 106.564L38.9987 106.219L39.028 106.108C39.1613 106.133 39.256 106.128 39.3134 106.095C39.372 106.061 39.4093 106.011 39.428 105.944C39.4533 105.855 39.4574 105.708 39.4454 105.499L39.404 104.853Z" fill="white"></path>
<path d="M42.4053 102.696L43.304 102.888L44.668 106.441L45.1773 104.041C45.2307 103.783 45.244 103.619 45.2107 103.547C45.168 103.447 45.0826 103.385 44.952 103.357L44.836 103.332L44.8613 103.219L46.0147 103.465L45.9906 103.577L45.8733 103.552C45.7333 103.524 45.6226 103.553 45.5413 103.649C45.4906 103.708 45.4426 103.853 45.392 104.084L44.6467 107.593L44.5586 107.576L43.0853 103.759L42.5413 106.323C42.4866 106.579 42.4746 106.743 42.5053 106.815C42.5493 106.915 42.6333 106.979 42.7626 107.004L42.8813 107.029L42.8573 107.143L41.704 106.896L41.7266 106.784L41.8427 106.809C41.984 106.837 42.096 106.807 42.1773 106.712C42.2267 106.656 42.276 106.511 42.3266 106.277L42.9413 103.383C42.8747 103.219 42.8227 103.112 42.78 103.055C42.7413 103.001 42.6773 102.943 42.5906 102.883C42.5466 102.855 42.4773 102.829 42.38 102.812L42.4053 102.696Z" fill="white"></path>
<path d="M47.6186 103.847C47.316 103.816 47.06 103.931 46.848 104.192C46.5827 104.517 46.4173 105.015 46.3453 105.688C46.2733 106.377 46.3347 106.92 46.5307 107.317C46.6813 107.619 46.9053 107.785 47.2027 107.816C47.5187 107.849 47.7947 107.721 48.0333 107.435C48.2733 107.145 48.428 106.669 48.4973 106.003C48.576 105.28 48.5173 104.731 48.3293 104.351C48.1747 104.048 47.94 103.88 47.6186 103.847ZM47.688 103.623C48.1253 103.669 48.4813 103.917 48.7586 104.369C49.036 104.817 49.1413 105.355 49.076 105.977C49.0093 106.62 48.7906 107.135 48.4226 107.524C48.056 107.916 47.644 108.085 47.184 108.036C46.7186 107.988 46.3507 107.741 46.0787 107.296C45.8067 106.848 45.7053 106.297 45.7747 105.639C45.8453 104.971 46.0867 104.443 46.496 104.056C46.8493 103.721 47.248 103.577 47.688 103.623Z" fill="white"></path>
<path d="M50.2973 106.051C50.328 106.055 50.356 106.055 50.3787 106.059C50.4027 106.059 50.4213 106.059 50.4373 106.059C50.7613 106.072 51.0067 105.993 51.176 105.824C51.344 105.652 51.4373 105.432 51.444 105.16C51.4547 104.893 51.396 104.676 51.268 104.507C51.1427 104.336 50.9707 104.245 50.752 104.239C50.656 104.236 50.5253 104.248 50.3587 104.284L50.2973 106.051ZM52.6253 108.323L51.7213 108.291L50.6453 106.261C50.5587 106.264 50.492 106.264 50.4373 106.261C50.4147 106.261 50.392 106.259 50.368 106.259C50.3427 106.256 50.3173 106.253 50.2907 106.251L50.2467 107.485C50.2387 107.752 50.2547 107.919 50.3 107.985C50.36 108.08 50.4533 108.129 50.5787 108.133L50.712 108.139L50.7067 108.255L49.2573 108.203L49.2613 108.088L49.388 108.093C49.5307 108.099 49.636 108.041 49.7013 107.927C49.7387 107.864 49.7613 107.711 49.7693 107.468L49.8653 104.723C49.8747 104.453 49.8573 104.287 49.8133 104.22C49.752 104.125 49.6573 104.076 49.528 104.072L49.4013 104.069L49.4053 103.952L50.6373 103.995C50.9987 104.008 51.2627 104.048 51.4293 104.123C51.5987 104.195 51.7387 104.32 51.852 104.501C51.964 104.681 52.0187 104.893 52.0107 105.137C52 105.401 51.924 105.624 51.78 105.813C51.6387 106 51.424 106.128 51.1373 106.197L51.792 107.443C51.944 107.729 52.0747 107.919 52.1867 108.016C52.2973 108.111 52.4467 108.175 52.6307 108.205L52.6253 108.323Z" fill="white"></path>
<path d="M55.064 108.044L53.3293 104.651L53.6747 107.473C53.7053 107.732 53.7467 107.893 53.8013 107.952C53.872 108.029 53.9747 108.063 54.108 108.044L54.2267 108.031L54.2387 108.147L53.0707 108.291L53.0587 108.175L53.176 108.163C53.3187 108.141 53.4133 108.077 53.46 107.963C53.488 107.891 53.488 107.737 53.4573 107.501L53.1187 104.74C53.096 104.553 53.064 104.42 53.02 104.34C52.9893 104.284 52.94 104.24 52.8733 104.208C52.8067 104.175 52.704 104.164 52.5667 104.181L52.5507 104.067L53.504 103.952L55.1307 107.104L55.924 103.652L56.8774 103.536L56.8893 103.652L56.7747 103.664C56.6307 103.683 56.5333 103.749 56.4893 103.864C56.4613 103.936 56.4613 104.089 56.4893 104.325L56.828 107.087C56.8613 107.345 56.9053 107.504 56.9587 107.563C57.0307 107.643 57.1333 107.676 57.264 107.657L57.3814 107.645L57.3947 107.76L55.968 107.933L55.952 107.819L56.072 107.804C56.216 107.788 56.308 107.721 56.3547 107.607C56.3827 107.535 56.3827 107.381 56.352 107.145L56.0067 104.323L55.1454 108.033L55.064 108.044Z" fill="white"></path>
<path d="M59.7067 105.549L58.7906 103.987L58.5693 105.793L59.7067 105.549ZM59.8253 105.763L58.5413 106.036L58.4573 106.74C58.4346 106.915 58.4347 107.04 58.4493 107.12C58.4653 107.184 58.4986 107.235 58.5573 107.273C58.616 107.309 58.728 107.32 58.8906 107.299L58.9133 107.412L57.8707 107.635L57.8453 107.521C57.9787 107.46 58.0573 107.401 58.0906 107.345C58.152 107.229 58.2013 107.009 58.2387 106.687L58.6773 103.013L58.7613 102.996L60.652 106.213C60.8026 106.472 60.9266 106.636 61.0186 106.703C61.1133 106.768 61.228 106.792 61.3667 106.773L61.3893 106.887L60.0813 107.163L60.0573 107.051C60.188 107.015 60.2707 106.968 60.3067 106.912C60.344 106.856 60.3547 106.792 60.3427 106.725C60.3213 106.636 60.26 106.5 60.152 106.319L59.8253 105.763Z" fill="white"></path>
<path d="M63.9866 104.773L64.072 104.768L64.1533 105.956L61.6586 106.767L61.6226 106.656L61.7427 106.617C61.8787 106.573 61.9613 106.487 61.9813 106.356C61.9947 106.28 61.964 106.128 61.8866 105.897L61.0386 103.285C60.9573 103.035 60.8853 102.883 60.8186 102.832C60.7293 102.765 60.6213 102.752 60.5013 102.791L60.38 102.829L60.3427 102.719L61.8026 102.245L61.8373 102.356C61.6666 102.409 61.5533 102.468 61.4973 102.535C61.4413 102.599 61.412 102.665 61.408 102.737C61.4026 102.809 61.4413 102.965 61.5173 103.205L62.3453 105.749C62.3987 105.913 62.4466 106.024 62.4933 106.077C62.524 106.113 62.5653 106.133 62.612 106.141C62.6573 106.149 62.7826 106.119 62.9933 106.051L63.2266 105.975C63.4746 105.893 63.6386 105.816 63.7253 105.736C63.8093 105.657 63.8733 105.547 63.92 105.407C63.964 105.263 63.9866 105.049 63.9866 104.773Z" fill="white"></path>
<path d="M66.6733 100.763L66.6346 100.652L67.7693 100.263L67.8079 100.373L67.6853 100.415C67.5599 100.457 67.4853 100.555 67.4626 100.712C67.4519 100.785 67.4853 100.935 67.5626 101.157L68.1226 102.788C68.2613 103.193 68.3386 103.516 68.3506 103.761C68.3639 104.005 68.3053 104.239 68.1719 104.464C68.0413 104.687 67.8133 104.853 67.4933 104.963C67.1453 105.084 66.8506 105.099 66.6173 105.009C66.3839 104.92 66.1839 104.759 66.0213 104.528C65.9106 104.369 65.7719 104.047 65.6026 103.561L65.0626 101.992C64.9773 101.744 64.8933 101.589 64.8133 101.531C64.7319 101.475 64.6319 101.464 64.5093 101.508L64.3893 101.549L64.3506 101.439L65.7359 100.963L65.7746 101.072L65.6519 101.113C65.5213 101.16 65.4413 101.244 65.4213 101.369C65.4079 101.455 65.4386 101.611 65.516 101.833L66.1199 103.588C66.1746 103.744 66.2453 103.919 66.3386 104.112C66.4333 104.308 66.5279 104.451 66.6253 104.54C66.7253 104.632 66.8426 104.696 66.9813 104.732C67.1186 104.765 67.2706 104.753 67.4346 104.696C67.6439 104.625 67.8106 104.504 67.9359 104.333C68.0613 104.161 68.1226 103.977 68.1226 103.777C68.1199 103.577 68.0493 103.263 67.8999 102.835L67.3399 101.205C67.2546 100.955 67.1786 100.807 67.1119 100.757C67.0186 100.691 66.9146 100.68 66.7933 100.721L66.6733 100.763Z" fill="white"></path>
<path d="M67.6853 100.284L68.548 99.9679L71.5893 102.261L70.7493 99.9533C70.6587 99.7066 70.58 99.5613 70.516 99.5187C70.428 99.456 70.3213 99.4493 70.1946 99.4946L70.0853 99.536L70.0467 99.4253L71.1533 99.0213L71.1946 99.1306L71.0813 99.172C70.9453 99.22 70.8693 99.308 70.848 99.4306C70.8387 99.5053 70.8733 99.6533 70.9533 99.8786L72.1827 103.249L72.096 103.28L68.8253 100.824L69.7213 103.285C69.8106 103.531 69.888 103.677 69.952 103.723C70.044 103.783 70.1493 103.792 70.272 103.747L70.3853 103.705L70.4253 103.816L69.316 104.217L69.2787 104.108L69.388 104.069C69.524 104.021 69.6013 103.933 69.6213 103.811C69.632 103.736 69.596 103.585 69.516 103.363L68.5027 100.581C68.3613 100.479 68.2586 100.415 68.1946 100.389C68.1306 100.363 68.0467 100.348 67.9413 100.345C67.8893 100.343 67.8186 100.36 67.724 100.391L67.6853 100.284Z" fill="white"></path>
<path d="M74.1134 102.328L74.1547 102.437L72.7894 102.935L72.752 102.824L72.8614 102.783C72.9947 102.735 73.072 102.653 73.0974 102.535C73.112 102.459 73.0747 102.299 72.9894 102.061L72.0467 99.4774C71.9747 99.2747 71.9161 99.1441 71.8707 99.0881C71.8374 99.0441 71.7907 99.0134 71.7294 98.9947C71.6427 98.9721 71.5627 98.9774 71.4867 99.0027L71.3734 99.0441L71.3347 98.9361L72.6974 98.44L72.7387 98.548L72.6227 98.5881C72.492 98.6361 72.416 98.7187 72.3934 98.8361C72.3747 98.9134 72.4107 99.0721 72.5 99.3134L73.4401 101.897C73.5121 102.1 73.5707 102.228 73.6147 102.287C73.6507 102.329 73.696 102.359 73.76 102.376C73.8454 102.399 73.924 102.396 73.9987 102.371L74.1134 102.328Z" fill="white"></path>
<path d="M76.2239 97.1387L76.2653 97.2481C76.1626 97.3147 76.0906 97.3894 76.0586 97.476C76.0119 97.6014 75.9893 97.7788 75.9986 97.9988L76.1266 101.805L76.04 101.839L73.5919 98.8268C73.4653 98.6708 73.384 98.5774 73.3453 98.5481C73.284 98.5014 73.2173 98.4708 73.148 98.4574C73.0786 98.4441 72.9946 98.4494 72.8919 98.476L72.8533 98.3654L74.1546 97.8921L74.1933 98.0014C74.0519 98.0734 73.968 98.1374 73.9426 98.1988C73.9146 98.2601 73.9146 98.3268 73.94 98.3988C73.976 98.4961 74.0653 98.6361 74.2133 98.8188L75.8786 100.868L75.7866 98.2801C75.7786 98.0241 75.7559 97.8534 75.7253 97.7628C75.7039 97.7081 75.6613 97.6614 75.5973 97.6281C75.5333 97.5921 75.4413 97.5814 75.3253 97.6001C75.3173 97.6001 75.3053 97.6014 75.2839 97.604L75.244 97.4947L76.2239 97.1387Z" fill="white"></path>
<path d="M77.4333 96.944L77.9813 98.5346L78.6853 98.2933C78.8679 98.2293 78.9773 98.1533 79.016 98.0627C79.0666 97.9427 79.0573 97.7653 78.9853 97.536L79.0746 97.5053L79.5559 98.9053L79.4693 98.936C79.38 98.7467 79.3133 98.6293 79.2746 98.58C79.2213 98.5213 79.1546 98.4827 79.0773 98.4654C79.0013 98.4494 78.8933 98.4627 78.76 98.508L78.0559 98.752L78.512 100.079C78.5733 100.255 78.616 100.363 78.6426 100.399C78.668 100.429 78.7013 100.455 78.7426 100.468C78.78 100.479 78.844 100.468 78.932 100.437L79.4746 100.251C79.656 100.189 79.7826 100.128 79.8533 100.067C79.9226 100.007 79.9813 99.9173 80.0253 99.8C80.0813 99.6427 80.1173 99.4227 80.136 99.1413L80.2306 99.108L80.3 100.212L77.8306 101.063L77.792 100.952L77.9066 100.913C77.9813 100.888 78.0453 100.84 78.0986 100.771C78.1373 100.721 78.1559 100.663 78.1506 100.593C78.1479 100.524 78.112 100.391 78.0453 100.196L77.1466 97.5813C77.0573 97.3253 76.9826 97.1773 76.9213 97.1307C76.8359 97.072 76.7293 97.064 76.5986 97.1107L76.4826 97.1493L76.444 97.0387L78.9133 96.188L79.2546 97.056L79.16 97.0907C79.0573 96.8907 78.968 96.7573 78.9013 96.692C78.832 96.6266 78.752 96.5853 78.66 96.5693C78.588 96.5613 78.4706 96.588 78.312 96.6413L77.4333 96.944Z" fill="white"></path>
<path d="M80.9907 97.6507C81.0213 97.64 81.0467 97.6333 81.0707 97.628C81.0934 97.62 81.1107 97.6147 81.124 97.6093C81.4333 97.5093 81.636 97.3507 81.7387 97.1334C81.8414 96.916 81.8507 96.6774 81.7667 96.4187C81.6853 96.1654 81.5547 95.9814 81.3747 95.8654C81.1987 95.7481 81.0067 95.7214 80.7987 95.788C80.7067 95.82 80.5894 95.8787 80.4454 95.9654L80.9907 97.6507ZM83.956 98.988L83.096 99.2667L81.3907 97.7307C81.3107 97.7587 81.2467 97.7841 81.196 97.7987C81.172 97.8041 81.152 97.812 81.1267 97.82C81.104 97.8253 81.0773 97.832 81.052 97.8373L81.4333 99.0134C81.5187 99.2694 81.5893 99.42 81.6547 99.4667C81.744 99.536 81.8494 99.548 81.9694 99.5107L82.0947 99.4694L82.1307 99.58L80.7507 100.028L80.7147 99.9173L80.8347 99.8787C80.972 99.8347 81.0494 99.748 81.072 99.6147C81.088 99.544 81.0547 99.392 80.98 99.1613L80.1307 96.5467C80.048 96.2934 79.9734 96.1427 79.9094 96.0934C79.82 96.0267 79.7147 96.012 79.592 96.052L79.472 96.0907L79.4333 95.9813L80.6094 95.5987C80.9494 95.4894 81.2133 95.44 81.3947 95.4507C81.58 95.4587 81.7547 95.5294 81.9227 95.6627C82.0893 95.7907 82.212 95.9734 82.2893 96.2054C82.368 96.4547 82.3734 96.692 82.304 96.9187C82.2347 97.1414 82.076 97.336 81.8307 97.5L82.8734 98.444C83.112 98.6627 83.3014 98.796 83.4387 98.8467C83.5747 98.9 83.736 98.908 83.9213 98.8774L83.956 98.988Z" fill="white"></path>
<path d="M84.976 94.1628L85.3814 95.5787L85.2934 95.604C85.1867 95.3414 85.0734 95.1387 84.9507 95.0001C84.8307 94.8587 84.6894 94.7614 84.5254 94.7081C84.3614 94.6521 84.2027 94.6467 84.056 94.6881C83.8907 94.7361 83.7694 94.8414 83.6987 95.0001C83.6267 95.1587 83.6134 95.3174 83.66 95.4814C83.6947 95.6067 83.7614 95.7094 83.86 95.7907C84.0027 95.9147 84.2974 96.0467 84.7427 96.1934C85.104 96.3121 85.3574 96.4081 85.4987 96.4881C85.6414 96.5614 85.7654 96.6681 85.868 96.8001C85.972 96.9307 86.0467 97.0801 86.0934 97.2414C86.1827 97.5507 86.1614 97.8454 86.0334 98.1267C85.908 98.4041 85.696 98.5854 85.3934 98.6734C85.2987 98.6987 85.2067 98.7161 85.1187 98.7214C85.068 98.7267 84.9534 98.7187 84.7787 98.7014C84.604 98.6827 84.4974 98.6774 84.4534 98.6907C84.4147 98.7014 84.3867 98.7268 84.372 98.7654C84.3587 98.7974 84.3587 98.8668 84.3774 98.9654L84.2867 98.9894L83.8854 97.5867L83.9747 97.5614C84.1 97.8427 84.2174 98.048 84.3307 98.1734C84.444 98.2987 84.584 98.3881 84.756 98.4441C84.9307 98.4987 85.1014 98.5014 85.276 98.4521C85.476 98.3934 85.616 98.2827 85.6907 98.1174C85.7707 97.9507 85.7854 97.7787 85.732 97.5974C85.704 97.4947 85.652 97.4 85.5787 97.3094C85.5067 97.22 85.4094 97.1441 85.2907 97.0827C85.212 97.0414 85.004 96.9614 84.6694 96.8467C84.336 96.7294 84.092 96.6281 83.9387 96.5467C83.788 96.4654 83.6614 96.36 83.5614 96.2374C83.46 96.1134 83.3854 95.9681 83.3374 95.7988C83.252 95.5041 83.2707 95.2281 83.3907 94.9641C83.508 94.7001 83.7054 94.5281 83.9827 94.4494C84.156 94.3974 84.3534 94.4001 84.5787 94.4521C84.684 94.4747 84.7534 94.4827 84.7894 94.4721C84.8307 94.4587 84.8614 94.4334 84.876 94.3974C84.8947 94.3574 84.9 94.2881 84.8867 94.1881L84.976 94.1628Z" fill="white"></path>
<path d="M88.1626 97.7347L88.1906 97.848L86.7813 98.1987L86.7533 98.0854L86.8706 98.0574C87.0066 98.0241 87.0946 97.9507 87.1306 97.8347C87.1533 97.7613 87.132 97.6 87.0706 97.3507L86.4053 94.6854C86.3533 94.4747 86.308 94.3414 86.272 94.2774C86.2413 94.232 86.1973 94.196 86.1386 94.172C86.0573 94.1414 85.9746 94.1334 85.8973 94.1547L85.78 94.1827L85.752 94.0707L87.1613 93.7187L87.1893 93.8321L87.0706 93.8627C86.9373 93.8961 86.8506 93.9707 86.8146 94.0854C86.7893 94.1601 86.8093 94.3214 86.8706 94.5694L87.5373 97.236C87.588 97.4427 87.6346 97.5787 87.6706 97.64C87.7013 97.6893 87.7453 97.7253 87.8066 97.748C87.8853 97.7787 87.968 97.7841 88.044 97.7654L88.1626 97.7347Z" fill="white"></path>
<path d="M90.3134 93.0254L90.5574 93.9907L90.4654 94.0107C90.4107 93.8441 90.36 93.7267 90.3134 93.6574C90.2374 93.5507 90.152 93.4787 90.0547 93.44C89.96 93.4013 89.8454 93.3961 89.7067 93.4241L89.24 93.5241L89.916 96.7054C89.9707 96.9614 90.0267 97.1147 90.0827 97.1694C90.1654 97.244 90.2694 97.264 90.3987 97.2387L90.5107 97.2134L90.5374 97.3254L89.1307 97.6254L89.1067 97.512L89.2254 97.4867C89.364 97.4587 89.4534 97.3814 89.4894 97.264C89.5094 97.192 89.4974 97.0387 89.448 96.8054L88.772 93.6241L88.372 93.7094C88.2187 93.7427 88.1107 93.7774 88.052 93.8214C87.976 93.8787 87.9187 93.9707 87.8827 94.0934C87.844 94.2161 87.84 94.372 87.8707 94.564L87.776 94.5827L87.6094 93.5987L90.3134 93.0254Z" fill="white"></path>
<path d="M93.1853 92.5494L94.3546 92.3854L94.3733 92.5L94.3093 92.508C94.2653 92.5134 94.2066 92.5467 94.1293 92.6054C94.0533 92.6667 93.9893 92.744 93.932 92.844C93.8786 92.9414 93.8146 93.0987 93.7426 93.312L93.1613 95.028L93.308 96.0827C93.3466 96.3414 93.392 96.5001 93.4453 96.5601C93.52 96.6361 93.6253 96.668 93.7613 96.6467L93.8706 96.6334L93.8866 96.7467L92.4626 96.9467L92.444 96.8307L92.5653 96.8161C92.7053 96.7947 92.7986 96.7294 92.844 96.6107C92.8693 96.5414 92.8666 96.3854 92.8346 96.1507L92.6933 95.1534L91.5253 93.5161C91.3866 93.3254 91.2946 93.2067 91.248 93.1614C91.2026 93.112 91.1133 93.064 90.9826 93.0067C90.9466 92.992 90.8946 92.9867 90.8333 92.9974L90.8186 92.8814L92.2519 92.68L92.268 92.7947L92.1933 92.8054C92.1173 92.8147 92.0479 92.848 91.9879 92.9027C91.9293 92.9587 91.9093 93.0334 91.9226 93.1227C91.9319 93.1974 92.0013 93.3253 92.1293 93.504L93.0213 94.764L93.4946 93.3733C93.5666 93.1627 93.5973 93.012 93.5813 92.9174C93.5746 92.8614 93.5559 92.8094 93.5226 92.7667C93.4946 92.7254 93.456 92.6947 93.408 92.676C93.3586 92.656 93.2893 92.6507 93.2 92.664L93.1853 92.5494Z" fill="white"></path>
<path d="M84.1746 27.396C84.1746 27.396 84.1999 68.2093 84.1999 68.2427C84.1919 68.2453 84.1559 68.4067 84.1559 68.4067C84.1613 68.3867 84.0213 68.9134 84.0213 68.9134C80.3679 82.796 69.2146 92.1494 50.8906 96.736C32.7853 91.716 21.2733 81.9787 17.6093 68.5547C17.6093 68.5547 17.5759 68.432 17.5586 68.376C17.5586 68.36 17.5239 67.864 17.5239 67.864L17.5253 27.3867L84.1746 27.396Z" fill="#D1E5F7"></path>
<path d="M60.4626 66.1427L54.4892 74.8373L67.1266 91.6827L61.6226 93.5574L51.4079 79.3227L41.0333 94.4214L36.7639 91.712L48.2479 74.9254L41.8426 66.3574L44.9079 61.8187L51.2852 70.484L57.2226 61.8067L60.4626 66.1427Z" fill="white"></path>
<path d="M46.7174 29.5974H55.3334V43.984L80.2 78.0267L79.892 78.4974L54.8187 44.1507V30.112H54.6894L51.1454 32.3347V44.5947L78.0067 81.244L75.3227 84.3373L51.0294 50.7334L27.0894 84.644L24.528 81.756L50.9867 44.5947L50.9761 32.3227L47.3747 30.1013H47.232V44.1507L22.3161 78.948L22.0081 78.3961L46.7174 43.984V29.5974Z" fill="#0C3B66"></path>
<path d="M20.4707 59.3601C20.4707 59.0321 20.7387 58.7667 21.068 58.7667C21.3974 58.7667 21.6654 59.0321 21.6654 59.3601C21.6654 59.6934 21.3974 59.9574 21.068 59.9574C20.7387 59.9574 20.4707 59.6934 20.4707 59.3601Z" fill="#0C3B66"></path>
<path d="M30.6426 50L35.604 57.1373L38.7533 52.636L32.8813 44.5693V29.8547H28.3133V44.5693L19.2173 57.1294V66.124L30.6426 50Z" fill="white"></path>
<path d="M28.0573 29.5974C28.0573 29.5974 28.0573 44.3214 28.0573 44.4854C27.96 44.6187 18.96 57.0467 18.96 57.0467V66.9347C18.96 66.9347 30.2306 51.0267 30.64 50.4494C31.0253 51.0014 35.6026 57.5881 35.6026 57.5881L39.0693 52.6334C39.0693 52.6334 33.2346 44.6187 33.1386 44.4854C33.1386 44.3201 33.1386 29.5974 33.1386 29.5974H28.0573ZM32.624 30.112C32.624 30.6094 32.624 44.6521 32.624 44.6521C32.624 44.6521 38.228 52.3534 38.4373 52.64C38.2546 52.9027 35.9613 56.18 35.6053 56.6867C35.2186 56.1307 30.6453 49.5521 30.6453 49.5521C30.6453 49.5521 20.336 64.1001 19.4746 65.3161C19.4746 63.9894 19.4746 57.3627 19.4746 57.212C19.572 57.08 28.572 44.6521 28.572 44.6521C28.572 44.6521 28.572 30.6094 28.572 30.112C29.0026 30.112 32.192 30.112 32.624 30.112Z" fill="#0C3B66"></path>
<path d="M30.0454 31.508C30.0454 31.1773 30.3107 30.9107 30.6414 30.9107C30.9694 30.9107 31.2374 31.1773 31.2374 31.508C31.2374 31.8373 30.9694 32.1053 30.6414 32.1053C30.3107 32.1053 30.0454 31.8373 30.0454 31.508Z" fill="#0C3B66"></path>
<path d="M30.6827 32.088V45.8786L37.1373 54.8533L37.0347 54.9547L30.6213 45.96L21.352 59.0947L21.2094 59.032L30.56 45.796V31.9654L30.6827 32.088Z" fill="#0C3B66"></path>
<path d="M71.4281 50L66.4667 57.1373L63.3174 52.636L69.1894 44.5693V29.8547H73.7574V44.5693L82.8534 57.1294V66.124L71.4281 50Z" fill="white"></path>
<path d="M74.0147 29.5974C74.0147 29.5974 74.0147 44.3214 74.0147 44.4854C74.1107 44.6187 83.1107 57.0467 83.1107 57.0467V66.9347C83.1107 66.9347 71.84 51.0267 71.4307 50.4494C71.0453 51.0014 66.468 57.5881 66.468 57.5881L63.0013 52.6334C63.0013 52.6334 68.836 44.6187 68.932 44.4854C68.932 44.3201 68.932 29.5974 68.932 29.5974H74.0147ZM69.4467 30.112C69.4467 30.6094 69.4467 44.6521 69.4467 44.6521C69.4467 44.6521 63.8427 52.3534 63.6333 52.64C63.816 52.9027 66.1093 56.18 66.4653 56.6867C66.852 56.1307 71.4253 49.5521 71.4253 49.5521C71.4253 49.5521 81.7347 64.1001 82.596 65.3161C82.596 63.9894 82.596 57.3627 82.596 57.212C82.4987 57.08 73.4987 44.6521 73.4987 44.6521C73.4987 44.6521 73.4987 30.6094 73.4987 30.112C73.068 30.112 69.8787 30.112 69.4467 30.112Z" fill="#0C3B66"></path>
<path d="M72.0252 31.508C72.0252 31.1773 71.7599 30.9107 71.4292 30.9107C71.0999 30.9107 70.8333 31.1773 70.8333 31.508C70.8333 31.8373 71.0999 32.1053 71.4292 32.1053C71.7599 32.1053 72.0252 31.8373 72.0252 31.508Z" fill="#0C3B66"></path>
<path d="M71.388 32.088V45.8786L64.9333 54.8533L65.036 54.9547L71.4494 45.96L80.7187 59.0947L80.8613 59.032L71.5107 45.796V31.9654L71.388 32.088Z" fill="#0C3B66"></path>
<path d="M50.3333 32.4453C50.3333 32.024 50.6732 31.684 51.0932 31.684C51.5132 31.684 51.8572 32.024 51.8572 32.4453C51.8572 32.8667 51.5132 33.2067 51.0932 33.2067C50.6732 33.2067 50.3333 32.8667 50.3333 32.4453Z" fill="white"></path>
<path d="M54.8067 74.8333C55.0054 74.5413 60.7787 66.136 60.7787 66.136L57.2134 61.3627C57.2134 61.3627 51.66 69.48 51.2774 70.0387C50.876 69.4933 44.8987 61.372 44.8987 61.372L41.5267 66.3654C41.5267 66.3654 47.7174 74.6467 47.932 74.9307C47.7267 75.2307 36.4 91.7853 36.4 91.7853L41.1054 94.772C41.1054 94.772 51.0147 80.3506 51.4134 79.7706C51.8254 80.3453 62.128 94.8693 62.128 94.8693L67.632 92.2667C67.632 92.2667 55.02 75.124 54.8067 74.8333ZM44.9173 62.2667C45.3213 62.816 51.2934 70.9294 51.2934 70.9294C51.2934 70.9294 56.8534 62.804 57.2307 62.2493C57.3987 62.472 57.9934 63.268 58.6027 64.0813L51.5814 74.34C51.5014 74.2986 51.4107 74.2693 51.3134 74.2693C51.208 74.2693 51.1147 74.304 51.028 74.3533L43.6067 64.2066C44.1867 63.3453 44.7573 62.5027 44.9173 62.2667ZM51.404 78.8747C51.404 78.8747 41.236 93.672 40.9614 94.0706C40.6027 93.844 37.5107 91.88 37.128 91.6373C37.42 91.208 48.5654 74.9187 48.5654 74.9187C48.5654 74.9187 42.3707 66.6333 42.1587 66.3493C42.2493 66.2147 42.876 65.2866 43.5147 64.3426L50.9 74.4387C50.7894 74.548 50.7173 74.6973 50.7173 74.8667C50.7173 75.0427 50.7973 75.1973 50.9213 75.3066L39.1987 92.4307L39.3427 92.5133L51.0627 75.4027C51.14 75.4387 51.2227 75.4627 51.3134 75.4627C51.416 75.4627 51.508 75.4293 51.5934 75.3853L63.8694 92.164L64.012 92.1027L51.7213 75.2987C51.836 75.1894 51.9107 75.0373 51.9107 74.8667C51.9107 74.696 51.8387 74.5453 51.7253 74.436L58.7134 64.232C59.3867 65.132 60.048 66.0173 60.1467 66.1493C59.944 66.4427 54.1734 74.8426 54.1734 74.8426C54.1734 74.8426 66.74 91.9267 66.976 92.2467C66.7494 92.5173 63.008 94.172 62.4347 94.4387C62.0614 93.9173 51.404 78.8747 51.404 78.8747Z" fill="#0C3B66"></path>
<path d="M65.1186 5.12672C65.1106 4.01205 65.0852 0.930687 65.0852 0.930687L36.5572 0.905357C36.5572 0.905357 36.5572 4.00405 36.5572 5.12672C34.8599 5.12672 10.8333 5.12672 10.8333 5.12672C10.8333 5.12672 15.2359 9.55334 15.6919 10.012C15.6919 10.7587 15.6919 67.8507 15.6919 67.8507C15.6919 67.8373 15.7693 68.7654 15.7693 68.7654L15.7773 68.8494L15.7813 68.816L15.8426 69.0373C19.7026 83.18 31.7346 93.3934 50.6373 98.5774L50.8653 98.6414L51.0986 98.5827C70.2666 93.844 81.9386 84.02 85.7933 69.38L85.9266 68.8774C85.9319 68.86 86.0306 68.2587 86.0306 68.2587C86.0306 68.2587 86.0306 10.524 86.0306 9.776C86.4813 9.32266 90.6599 5.12672 90.6599 5.12672C90.6599 5.12672 66.8012 5.12672 65.1186 5.12672ZM84.1559 68.4067C84.1612 68.3867 84.0212 68.9134 84.0212 68.9134C80.3679 82.796 69.2146 92.1494 50.8906 96.736C32.7852 91.716 21.2733 81.9787 17.6093 68.5547C17.6093 68.5547 17.5759 68.432 17.5586 68.376C17.5586 68.36 17.5239 67.864 17.5239 67.864L17.5252 27.3867L84.1746 27.396C84.1746 27.396 84.1999 68.2093 84.1999 68.2427C84.1919 68.2453 84.1559 68.4067 84.1559 68.4067Z" fill="#0C3B66"></path>
<path d="M15.2386 6.95999L17.26 8.97998H36.4333V6.94795L15.2386 6.95999Z" fill="#BF1B2C"></path>
<path d="M86.1001 6.95999L84.0801 8.97998H64.9067V6.94795L86.1001 6.95999Z" fill="#BF1B2C"></path>
<path d="M26.2039 12.0321C26.0879 12.0041 26.0279 11.996 25.9932 11.968C25.9599 11.9387 25.9159 11.9334 25.8239 11.996C25.7346 12.0574 25.6479 12.068 25.6226 12.1093C25.5986 12.152 25.5652 12.1654 25.5012 12.2027C25.4399 12.2414 25.0786 12.5693 25.0226 12.7253C24.9639 12.8813 24.9532 13.004 24.9639 13.1093C24.9746 13.2133 25.0839 13.3973 25.1386 13.4173C25.1892 13.436 25.2146 13.4307 25.2852 13.5067C25.3586 13.584 25.4439 13.616 25.3826 13.7013C25.3213 13.7853 25.3252 13.8054 25.2279 13.8054C25.1332 13.8054 24.9479 13.8014 24.8919 13.7961C24.8346 13.7907 24.7319 13.8627 24.7279 13.9187C24.7239 13.9774 24.7852 14.0707 24.7946 14.1373C24.8052 14.204 24.8666 14.2267 24.9252 14.304C24.9839 14.3787 24.9986 14.46 25.0839 14.512C25.1706 14.564 25.1999 14.568 25.2532 14.5733C25.3066 14.5773 25.3639 14.5493 25.4119 14.6253C25.4586 14.7 25.4679 14.7187 25.4559 14.7961C25.4399 14.8707 25.5012 14.8907 25.5066 15.0373C25.5119 15.184 25.5119 15.472 25.5119 15.5774C25.5119 15.6814 25.5333 15.748 25.4119 15.804C25.2919 15.86 25.0066 15.9947 24.8866 16.0321C24.7666 16.0694 24.4279 16.236 24.3519 16.3533C24.2746 16.472 24.2866 16.5534 24.2372 16.5961C24.1892 16.6387 24.0986 16.7373 24.2079 16.8707C24.3186 17.0027 24.3559 17.012 24.4012 17.0934C24.4452 17.1734 24.6186 17.1774 24.7079 17.164C24.7999 17.1494 24.9413 17.1121 25.0119 17.0321C25.0839 16.9507 25.1706 16.8894 25.2199 16.8574C25.2679 16.824 25.3919 16.8187 25.5466 16.8267C25.6999 16.8374 25.8399 16.8507 25.9012 16.7627C25.9652 16.6707 26.0332 16.5627 26.0652 16.468C26.0986 16.3747 26.2106 16.2081 26.2773 16.1654C26.3439 16.1214 26.4652 16.084 26.4599 16.2214C26.4546 16.3587 26.4519 16.5307 26.4466 16.6294C26.4413 16.7281 26.3439 16.78 26.3546 16.936C26.3652 17.0934 26.3986 17.212 26.3826 17.3067C26.3693 17.4013 26.3599 17.472 26.3986 17.5013C26.4346 17.5293 26.4306 17.572 26.4079 17.624C26.3826 17.676 26.3826 17.752 26.3252 17.828C26.2679 17.904 26.2012 18.0027 26.1039 18.0453C26.0092 18.088 25.9066 18.1014 25.7426 18.1934C25.5813 18.2814 25.5706 18.2574 25.4732 18.316C25.3786 18.372 25.3386 18.4147 25.2759 18.424C25.2146 18.4334 25.1453 18.428 25.0786 18.4854C25.0119 18.5427 24.9479 18.58 24.8866 18.6C24.8226 18.6187 24.7946 18.6134 24.7239 18.6667C24.6506 18.7187 24.5653 18.7654 24.5106 18.7747C24.4586 18.784 24.3879 18.8067 24.3292 18.856C24.2706 18.9027 24.1932 18.9067 24.1306 18.964C24.0706 19.0214 24.0159 19.0454 23.9826 19.0547C23.9493 19.064 23.8799 19.112 23.8346 19.1547C23.7852 19.196 23.5826 19.2947 23.5159 19.348C23.4479 19.4 23.4106 19.4 23.3652 19.4147C23.3226 19.4293 23.2892 19.4613 23.2172 19.5093C23.1452 19.556 23.0679 19.6054 22.9972 19.628C22.9252 19.652 22.8559 19.652 22.8172 19.6787C22.7786 19.708 22.6986 19.7173 22.5972 19.7173C22.4946 19.7173 22.4372 19.7561 22.3999 19.7987C22.3612 19.8401 22.2612 19.8933 22.2652 19.9733C22.2692 20.0547 22.2439 20.0587 22.2119 20.1013C22.1773 20.144 22.1666 20.2493 22.2159 20.2813C22.2653 20.3147 22.2439 20.348 22.2692 20.428C22.2919 20.508 22.3079 20.576 22.3572 20.6373C22.4052 20.6987 22.4079 20.7307 22.4466 20.7893C22.4866 20.8453 22.5346 20.864 22.5813 20.8827C22.6306 20.9027 22.6839 20.944 22.7252 20.94C22.7692 20.9347 22.8132 21.0347 22.8839 21.0253C22.9586 21.016 23.0146 20.9974 23.0639 20.964C23.1119 20.9307 23.1546 20.9347 23.2012 20.94C23.2519 20.944 23.2933 20.94 23.3426 20.864C23.3919 20.7894 23.5386 20.684 23.6372 20.5707C23.7332 20.456 23.8906 20.3013 23.9759 20.2253C24.0653 20.1493 24.1519 20.096 24.2412 20.0054C24.3332 19.9174 24.4092 19.888 24.4626 19.8267C24.5159 19.7654 24.5559 19.756 24.5879 19.7373C24.6212 19.7173 24.6706 19.6707 24.7079 19.6321C24.7466 19.5947 24.7892 19.6054 24.8346 19.5614C24.8772 19.5174 25.0466 19.372 25.0639 19.352C25.0839 19.3334 25.1386 19.3214 25.1813 19.2907C25.2226 19.2627 25.2919 19.196 25.3532 19.144C25.4172 19.0907 25.5653 18.9893 25.7146 18.8893C25.8639 18.7893 26.0466 18.6854 26.1133 18.6414C26.1813 18.6 26.3026 18.5894 26.3079 18.6854C26.3119 18.78 26.3199 19.0293 26.3346 19.1347C26.3492 19.2387 26.3826 19.3387 26.3599 19.4054C26.3346 19.4707 26.3386 19.5093 26.3439 19.6227C26.3493 19.7373 26.3653 19.8614 26.2826 19.9494C26.2013 20.04 26.0546 20.14 25.9399 20.188C25.8239 20.2334 25.8172 20.2533 25.7239 20.32C25.6319 20.384 25.6079 20.3947 25.5599 20.404C25.5119 20.4147 25.4679 20.4227 25.4306 20.476C25.3919 20.528 25.3453 20.5373 25.2799 20.5427C25.2199 20.5467 25.2106 20.556 25.1332 20.6173C25.0559 20.68 24.8586 20.8693 24.7946 20.9347C24.7319 21.0013 24.7052 21.044 24.7079 21.1574C24.7132 21.2707 24.7079 21.3654 24.7719 21.4414C24.8346 21.5187 24.9053 21.6134 24.9786 21.6654C25.0306 21.7027 25.0839 21.736 25.1279 21.7587C25.1706 21.7827 25.2426 21.8147 25.3026 21.8587C25.3586 21.9013 25.4306 21.992 25.5012 21.992C25.5759 21.992 25.6653 21.976 25.7146 21.9867C25.7626 21.9973 25.7959 21.9534 25.8346 21.9107C25.8746 21.868 25.9212 21.8827 25.9652 21.8267C26.0092 21.768 26.0652 21.7067 26.0959 21.6494C26.1239 21.5934 26.1919 21.4654 26.2453 21.4134C26.2959 21.3614 26.3773 21.3481 26.3826 21.4654C26.3879 21.5841 26.3719 21.6467 26.3692 21.6974C26.3652 21.7494 26.4226 21.8107 26.4412 21.8453C26.4599 21.8787 26.4546 21.9494 26.4519 22.0387C26.4466 22.1294 26.4412 22.4027 26.4412 22.4694C26.4412 22.5374 26.4519 22.5933 26.4119 22.64C26.3719 22.688 26.3719 22.712 26.3692 22.7733C26.3652 22.8347 26.3692 22.944 26.3319 22.992C26.2932 23.04 26.3119 23.1013 26.2679 23.14C26.2239 23.176 26.2013 23.2333 26.1479 23.284C26.0959 23.3373 26.0959 23.384 26.0986 23.456C26.1039 23.528 26.1132 23.5787 26.1386 23.6067C26.1612 23.636 26.1852 23.6933 26.1852 23.7453C26.1852 23.7973 26.2186 23.8627 26.2453 23.8854C26.2679 23.9107 26.2826 23.9627 26.2826 24.0054C26.2826 24.048 26.3079 24.0813 26.3346 24.1173C26.3652 24.156 26.4466 24.2413 26.4706 24.312C26.4932 24.384 26.5292 24.4507 26.5692 24.4707C26.6132 24.488 26.6679 24.5214 26.7159 24.5827C26.7639 24.644 26.8159 24.7013 26.8506 24.7013C26.8852 24.7013 26.9666 24.7347 27.0052 24.788C27.0439 24.8387 27.1106 24.8147 27.1719 24.82C27.2359 24.824 27.3066 24.7787 27.3506 24.7294C27.3946 24.6827 27.5226 24.5547 27.5226 24.4707C27.5226 24.384 27.6039 24.1387 27.6479 24.072C27.6919 24.0054 27.7066 23.868 27.7066 23.7453C27.7066 23.6213 27.6919 23.4933 27.6786 23.3893C27.6626 23.284 27.6813 23.0441 27.6813 22.9627C27.6813 22.8347 27.5972 22.7454 27.5972 22.6027C27.5972 22.5174 27.6159 22.276 27.6026 22.2C27.5866 22.124 27.6026 21.9973 27.5919 21.9533C27.5812 21.9107 27.5479 21.8027 27.5226 21.736C27.4999 21.6707 27.5039 21.532 27.4999 21.4854C27.4946 21.4374 27.4652 21.3653 27.4706 21.276C27.4759 21.1867 27.4839 21.044 27.4453 20.9774C27.4079 20.9107 27.4092 20.8054 27.4172 20.7267C27.4226 20.684 27.4386 20.6694 27.5332 20.628C27.6292 20.584 27.7306 20.5467 27.7972 20.5134C27.8652 20.4814 27.9706 20.4187 28.0346 20.4093C28.0959 20.3987 28.2879 20.2667 28.3759 20.1774C28.4626 20.088 28.5399 20.072 28.5346 19.9173C28.5292 19.76 28.4479 19.628 28.3599 19.556C28.2759 19.4853 28.1119 19.3907 28.0572 19.3387C28.0052 19.2867 27.9573 19.2867 27.8453 19.2827C27.7346 19.2774 27.6026 19.2774 27.5586 19.2907C27.5146 19.3054 27.4839 19.3573 27.4426 19.368C27.3999 19.3773 27.2839 19.424 27.2532 19.348C27.2252 19.272 27.1639 19.0734 27.1532 18.8947C27.1439 18.7134 27.1586 18.4853 27.1826 18.3867C27.2079 18.2867 27.2532 18.2067 27.2532 18.2067C27.2692 18.112 27.2786 18.0733 27.3306 18.0227C27.3839 17.9693 27.4839 17.884 27.5626 17.8467C27.6399 17.808 27.8066 17.7907 27.8612 17.756C27.9146 17.7227 28.0372 17.704 28.1012 17.6707C28.1639 17.6373 28.2213 17.604 28.3466 17.568C28.4733 17.5293 28.5826 17.4587 28.6599 17.452C28.7359 17.448 28.8906 17.3774 28.9426 17.3494C28.9959 17.32 29.0919 17.3441 29.1586 17.3294C29.2279 17.3147 29.3813 17.2453 29.4146 17.2253C29.4493 17.2067 29.5453 17.228 29.5826 17.2027C29.6746 17.136 29.7653 17.1773 29.8426 17.1587C29.9199 17.1413 30.0386 17.0854 30.0986 17.0414C30.1559 16.9974 30.2653 16.9747 30.3146 16.98C30.3613 16.9854 30.5159 16.8467 30.5652 16.7627C30.6146 16.6761 30.6986 16.548 30.6799 16.388C30.6599 16.2267 30.5706 16.204 30.4839 16.1507C30.3959 16.0987 30.2812 16.0133 30.2426 15.9893C30.2026 15.9653 30.1652 15.9134 30.0746 15.9747C29.9812 16.0374 29.8586 16.0547 29.7559 16.0987C29.6546 16.1414 29.5746 16.0427 29.4639 16.1507C29.3519 16.26 29.2092 16.316 29.1252 16.336C29.0452 16.3534 28.9999 16.4053 28.8946 16.448C28.7879 16.492 28.8132 16.4627 28.7026 16.5147C28.5932 16.5667 28.5439 16.5921 28.4626 16.6321C28.3799 16.6761 28.2012 16.8093 28.0719 16.8373C27.9439 16.8653 27.6679 17.0414 27.5866 17.0854C27.5039 17.1254 27.3506 17.12 27.3692 16.9934C27.3892 16.8654 27.3786 16.7373 27.4119 16.704C27.4453 16.6707 27.4652 16.6014 27.4706 16.4974C27.4759 16.392 27.5332 16.3014 27.5972 16.1827C27.6586 16.0654 27.7172 15.884 27.7932 15.7813C27.8706 15.676 27.8506 15.616 27.9146 15.5253C27.9759 15.436 27.9759 15.4067 28.1119 15.3587C28.2453 15.3107 28.5786 15.1093 28.6879 15.04C28.7972 14.976 28.9999 14.8667 29.0919 14.8054C29.1852 14.744 29.5026 14.5641 29.5586 14.4961C29.6172 14.4307 29.7279 14.3694 29.7172 14.2214C29.7066 14.0747 29.6666 14.0187 29.5453 13.9774C29.4253 13.9334 29.4639 13.9147 29.3319 13.9147C29.2039 13.9147 29.1106 13.928 29.0159 14.0373C28.9186 14.1467 28.8706 14.2693 28.7932 14.3173C28.7172 14.3653 28.6319 14.4027 28.6066 14.3507C28.5826 14.2987 28.5972 14.2693 28.6506 14.1707C28.7026 14.0707 28.7612 13.9853 28.7412 13.8813C28.7212 13.7773 28.7306 13.648 28.6506 13.6107C28.5679 13.5734 28.5399 13.5067 28.4346 13.5787C28.3279 13.648 28.2546 13.7294 28.2066 13.8334C28.1599 13.9387 28.0959 14.1334 28.1172 14.2694C28.1346 14.4067 28.1346 14.4733 28.0572 14.5347C27.9812 14.596 27.9866 14.7053 27.8839 14.692C27.7839 14.6773 27.7012 14.5734 27.6039 14.4961C27.5092 14.4214 27.2972 14.3307 27.2692 14.2787C27.2399 14.2267 27.1639 14.232 27.0892 14.3173C27.0199 14.4027 26.8852 14.5347 26.8506 14.6387C26.8159 14.744 26.7879 14.8094 26.7332 14.88C26.6826 14.952 26.5946 15.1547 26.5359 15.208C26.4786 15.26 26.4226 15.3161 26.3599 15.2987C26.2959 15.2787 26.3439 15.264 26.2732 15.1747C26.2012 15.084 26.2012 15.0747 26.1959 15.0093C26.1919 14.944 26.2626 14.8947 26.2239 14.856C26.1852 14.8187 26.2186 14.7147 26.2546 14.6494C26.2879 14.5827 26.3199 14.4734 26.3386 14.3267C26.3546 14.2227 26.3546 14.08 26.4786 14.0093C26.6053 13.9387 27.3253 13.5494 27.4119 13.488C27.4999 13.4254 27.5813 13.46 27.6479 13.4013C27.7173 13.3453 27.7932 13.2361 27.8959 13.1961C27.9959 13.1521 28.1492 13.0387 28.2266 12.9907C28.3039 12.9427 28.3932 12.8387 28.5399 12.74C28.6826 12.64 28.9612 12.4894 29.0719 12.38C29.1852 12.2707 29.6226 11.9627 29.6746 11.844C29.7279 11.7267 29.7759 11.6494 29.6892 11.5321C29.6026 11.4134 29.6066 11.38 29.4852 11.384C29.3679 11.3893 29.3759 11.356 29.3226 11.3187C29.2692 11.2814 29.2359 11.26 29.1799 11.3093C29.1199 11.356 29.0719 11.3934 28.9999 11.38C28.9306 11.3654 28.8759 11.4094 28.8133 11.46C28.7519 11.512 28.6439 11.532 28.5133 11.6774C28.3853 11.824 28.0426 12.2001 27.9532 12.3321C27.7932 12.5641 27.6186 12.6067 27.5279 12.712C27.3599 12.9093 27.1252 12.9521 27.0079 13.0654C26.8692 13.2041 26.8026 13.1747 26.7052 13.252C26.6106 13.3267 26.5132 13.364 26.4546 13.2787C26.3986 13.196 26.4412 13.0907 26.4879 13.028C26.5359 12.9667 26.5239 12.8347 26.5186 12.6787C26.5132 12.52 26.5332 12.3934 26.4519 12.308C26.3692 12.224 26.3732 12.0707 26.2039 12.0321Z" fill="white"></path>
<path d="M35.9107 13.1839C35.86 13.5786 35.9694 13.5866 35.9694 13.7866C35.9694 13.9893 35.9933 14.5426 35.9853 14.6693C35.9787 14.7946 35.9 14.8266 35.9187 14.9866C35.9347 15.1453 35.8934 15.6666 35.876 15.7919C35.86 15.9186 35.8413 15.9853 35.824 16.0693C35.808 16.1533 35.832 16.1706 35.688 16.28C35.544 16.388 35.1347 16.6053 34.9627 16.6813C34.792 16.7573 34.3507 16.924 34.232 16.9333C34.1133 16.9413 34.044 16.8986 33.8494 16.8493C33.652 16.7973 33.5254 16.7813 33.336 16.8746C33.1494 16.9666 33.1067 17.0079 33.1573 17.2533C33.208 17.4946 33.4387 17.6213 33.568 17.7039C33.6933 17.7893 34.256 18.0573 34.5707 18.0573C34.888 18.0573 35.1774 18.0146 35.1427 18.124C35.1107 18.2333 35.076 18.2506 35.0573 18.3666C35.04 18.484 34.9734 18.6013 34.904 18.7026C34.8374 18.8026 34.9227 18.8613 34.692 19.0119C34.4613 19.1639 34.2147 19.2386 34.1293 19.3053C34.044 19.3733 33.8227 19.3986 33.6694 19.4493C33.5174 19.4986 33.4147 19.5413 33.32 19.608C33.2267 19.676 33.0827 19.7599 32.8933 19.7679C32.7067 19.7759 32.604 19.7506 32.5533 20.0026C32.5013 20.2546 32.4947 20.548 32.4333 20.824C32.3747 21.1013 32.2654 21.4693 32.272 21.772C32.28 22.0746 32.2373 22.4746 32.4867 22.8786C32.732 23.2799 32.8854 23.3226 33.0387 23.2973C33.1934 23.272 33.4654 23.1293 33.508 22.9293C33.5494 22.7267 33.5413 22.4746 33.5333 22.116C33.5253 21.7546 33.4987 21.7133 33.4907 21.6026C33.4813 21.4933 33.4907 21.42 33.3707 21.344C33.2534 21.268 33.2187 21.2426 33.1933 21.1186C33.168 20.992 33.1067 21.008 33.124 20.7653C33.1427 20.5227 33.1334 20.3946 33.38 20.236C33.628 20.0786 34.1974 19.776 34.3427 19.708C34.4867 19.6426 34.5707 19.608 34.6227 19.76C34.6733 19.9093 34.6667 19.9946 34.7094 20.1026C34.7507 20.212 34.82 20.304 34.88 20.3627C34.9387 20.4213 34.956 20.4293 35.1013 20.4213C35.2453 20.4133 35.3987 20.4039 35.5013 20.3373C35.6027 20.2706 35.6107 20.3213 35.732 20.188C35.8493 20.052 35.928 19.9773 36.0307 19.9C36.1307 19.8266 36.2254 19.7999 36.2147 19.9346C36.208 20.0679 36.2587 20.1453 36.14 20.2293C36.02 20.3133 35.8667 20.3626 35.7134 20.4466C35.56 20.5306 35.5507 20.5133 35.468 20.5479C35.3813 20.5813 35.3893 20.6053 35.3653 20.6559C35.3387 20.7066 35.252 20.6733 35.252 20.7906C35.252 20.9093 35.1853 21.0839 35.3227 21.1346C35.4573 21.1853 35.6027 21.2426 35.484 21.344C35.3653 21.4453 35.1107 21.7133 35.032 21.8213C34.956 21.9306 34.9227 21.9479 34.9227 22.1479C34.9227 22.3506 34.9733 22.5173 35.0907 22.5333C35.2107 22.552 35.3893 22.5586 35.5013 22.5679C35.6107 22.5759 35.696 22.576 35.68 22.6853C35.6627 22.7933 35.672 22.9613 35.7467 23.072C35.824 23.18 35.7214 23.2653 35.9694 23.2653C36.2147 23.2653 36.4387 23.1466 36.576 22.8866C36.7094 22.6266 36.8374 22.3839 36.8707 22.2253C36.9067 22.0653 36.9067 22.0146 37.06 22.0066C37.212 21.9986 37.308 21.92 37.4507 22.0746C37.784 22.4253 38.1414 22.6346 38.244 22.7786C38.3454 22.9199 38.5573 23.1559 38.6947 23.2373C38.8307 23.3226 39 23.4159 39.1307 23.2226C39.2573 23.0306 39.308 23.004 39.3427 22.736C39.376 22.4666 39.2987 22.0479 39.36 21.5946C39.42 21.1426 39.556 20.0439 39.6653 19.3733C39.776 18.7026 39.9293 17.6293 40.0653 17.4106C40.2013 17.1933 40.2373 16.9919 40.2187 16.8399C40.2013 16.6906 40.016 16.4973 39.8533 16.4053C39.692 16.312 39.5733 16.2866 39.2987 16.4306C39.028 16.5706 38.8307 16.6053 38.5573 16.9573C38.3893 17.176 38.1334 17.1933 37.8774 17.352C37.6227 17.512 36.5227 18.0826 36.336 18.1746C36.1494 18.2653 36.0307 18.1986 36.1307 17.9973C36.2333 17.7973 36.4534 17.4706 36.54 17.344C36.6254 17.2186 36.6587 17.2239 36.9147 17.0919C37.3827 16.8493 37.776 16.4626 37.9293 16.3039C38.0827 16.1453 38.4053 15.8426 38.4907 15.6839C38.5747 15.5239 38.6174 15.3733 38.5427 15.2733C38.464 15.1733 38.2947 15.104 38.2 15.0546C38.108 15.0053 38.0827 15.0053 37.936 15.096C37.792 15.188 37.6133 15.3053 37.4853 15.3733C37.356 15.4399 37.2547 15.3653 37.3067 15.2053C37.356 15.0466 37.4267 14.8613 37.476 14.7013C37.5267 14.5426 37.5187 14.46 37.3827 14.2653C37.2467 14.0733 36.4453 13.3106 36.3173 13.1333C36.1907 12.9573 35.9374 12.9599 35.9107 13.1839ZM35.5774 19.0706C35.7574 18.9626 35.9107 18.9546 36.0454 18.8693C36.1827 18.7866 36.4214 18.6693 36.548 18.6013C36.676 18.5346 36.856 18.56 36.7013 18.7026C36.548 18.8453 36.2667 19.0293 36.1054 19.1226C35.9427 19.2146 35.86 19.256 35.7573 19.264C35.6547 19.2733 35.6627 19.356 35.536 19.324C35.4054 19.2893 35.3987 19.1799 35.5774 19.0706ZM37.7494 17.9973C37.996 17.868 38.628 17.544 38.8814 17.444C39.1374 17.344 39.12 17.3106 39.12 17.5786C39.12 17.8479 39.1374 18.2906 39.0787 18.56C39.0174 18.8293 39.052 19.172 38.9 19.6C38.7947 19.8946 38.824 20.1959 38.8147 20.2706C38.8054 20.3453 38.7533 20.4293 38.728 20.6559C38.7027 20.8826 38.628 21.068 38.6027 21.3613C38.5747 21.6533 38.5254 21.7133 38.5067 21.872C38.4907 22.032 38.5067 22.1319 38.3454 22.0893C38.1827 22.0479 37.6293 21.8133 37.5267 21.7293C37.4267 21.6453 37.4013 21.6133 37.46 21.5119C37.5187 21.4106 37.4853 21.3186 37.4933 21.2173C37.504 21.1186 37.552 21.1346 37.416 21.0333C37.2814 20.9333 37.212 20.8239 37.188 20.7733C37.16 20.7226 37.18 20.716 37.2467 20.6053C37.3147 20.496 37.3147 20.4133 37.3147 20.296C37.3147 20.1773 37.2467 20.0613 37.1347 20.0613C37.0253 20.0613 36.9653 20.0026 37.06 19.8266C37.1533 19.6493 37.8 19.0373 37.9627 18.8693C38.124 18.7026 38.2854 18.484 38.116 18.3853C37.9454 18.284 37.8427 18.1826 37.7573 18.1399C37.6747 18.0973 37.6227 18.0653 37.7494 17.9973Z" fill="white"></path>
<path d="M45.0386 13.24C45.2746 13.2947 45.3613 13.352 45.4333 13.4227C45.5013 13.4907 45.596 13.4907 45.7946 13.5934C45.992 13.6974 46.156 13.7307 46.26 13.916C46.3666 14.1 46.4226 14.204 46.2733 14.444C46.12 14.6867 45.9587 14.904 45.6773 15.1907C45.396 15.4774 44.5106 16.4334 44.2413 16.7307C43.972 17.0294 43.308 17.8227 43.1333 18.0067C42.956 18.1893 42.8413 18.316 42.6533 18.236C42.4666 18.1547 42.3013 18.0814 42.4666 17.88C42.664 17.6387 43.4947 16.916 43.8787 16.2373C44.2653 15.56 44.708 14.6747 44.8266 14.4093C44.9426 14.1453 45.048 14.1107 44.908 13.892C44.7666 13.6733 44.588 13.4413 44.744 13.3067C44.816 13.244 44.888 13.2067 45.0386 13.24ZM45.4173 16.488C45.292 16.5534 45.1493 16.6854 45.0546 16.8747C44.956 17.0627 44.852 17.2533 44.7266 17.4147C44.6013 17.576 44.496 17.6987 44.3427 17.8013C44.1867 17.9067 44.16 17.8867 44.0453 17.9547C43.9293 18.02 43.9093 18.1987 44.024 18.228C44.14 18.256 44.2933 18.228 44.3813 18.2373C44.4667 18.2467 44.572 18.1814 44.6107 18.2654C44.6493 18.3507 44.6773 18.6253 44.88 18.6347C45.0827 18.6427 45.2173 18.6347 45.2746 18.56C45.3306 18.4827 45.4853 18.3507 45.5613 18.2854C45.6386 18.2187 45.6493 18.0947 45.592 18.02C45.5333 17.9427 45.5506 17.8493 45.62 17.7373C45.6866 17.6227 45.7547 17.4987 45.812 17.3854C45.8693 17.272 45.9453 17.12 45.936 16.9134C45.9293 16.728 45.8786 16.732 45.792 16.6294C45.7066 16.524 45.544 16.4214 45.4173 16.488ZM43.3333 19.448C43.3333 19.704 43.304 20.2147 43.304 20.4321C43.304 20.6494 43.296 20.8094 43.2467 21.0667C43.1987 21.3214 43.2453 21.6387 43.632 21.7947C43.8906 21.8987 44.36 21.6147 44.456 21.1974C44.5533 20.7814 44.5066 20.536 44.36 20.2613C44.216 19.988 44.0507 19.6294 43.8813 19.4187C43.6973 19.192 43.612 19.1307 43.4973 19.164C43.428 19.1827 43.3333 19.2587 43.3333 19.448ZM44.6986 19.2294C44.8 19.1241 44.86 19.0987 44.9467 19.0307C45.0333 18.9654 45.0827 18.8907 45.1107 18.796C45.1387 18.7014 45.2253 18.748 45.2827 18.7294C45.34 18.7094 45.3613 18.652 45.428 18.6907C45.4946 18.7294 45.544 18.7294 45.6306 18.7574C45.7146 18.7854 45.8026 18.8041 45.792 18.9654C45.784 19.1254 45.792 19.212 45.7147 19.2787C45.6387 19.344 45.668 19.2787 45.6573 19.448C45.6493 19.6173 45.6773 19.8347 45.6773 19.94C45.6773 20.044 45.668 20.1 45.5613 20.2227C45.456 20.3467 45.3813 20.48 45.34 20.584C45.3026 20.6867 45.2533 20.6973 45.1493 20.64C45.044 20.584 44.9947 20.6214 44.88 20.4694C44.7653 20.3187 44.7066 20.2533 44.668 20.12C44.6293 19.988 44.66 19.9401 44.736 19.8654C44.8133 19.7881 44.8133 19.76 44.852 19.676C44.8906 19.5907 44.8746 19.5427 44.7986 19.4774C44.7173 19.4067 44.6186 19.3107 44.6986 19.2294ZM46.8026 16.648C46.924 16.5507 47.0306 16.5053 47.1573 16.468C47.2826 16.4307 47.608 16.3747 47.8586 16.1934C48.108 16.0147 48.972 15.4173 49.1853 15.276C49.3946 15.1347 49.7026 15.1627 49.828 15.352C49.9533 15.54 50.02 15.712 49.7893 15.9294C49.5586 16.1467 49.1466 16.3827 48.9546 16.5827C48.7613 16.78 48.224 17.224 47.9066 17.3013C47.5906 17.376 47.456 17.3667 47.2053 17.2533C46.956 17.14 46.6093 16.8 46.8026 16.648ZM46.0986 19.1453C46.2573 19.04 46.3186 19.0507 46.472 19.0627C46.624 19.0747 46.896 18.9427 47.0186 18.8414C47.1386 18.7387 47.2746 18.7627 47.4013 18.6321C47.528 18.5001 47.6026 18.3454 47.6026 18.2494C47.6026 18.1507 47.5706 17.96 47.6506 17.8414C47.7306 17.7214 47.78 17.488 47.9787 17.5054C48.1787 17.524 48.3733 17.632 48.4467 17.668C48.52 17.7027 48.5013 17.7747 48.6346 17.6613C48.7706 17.5467 49.1533 17.272 49.2746 17.2013C49.3946 17.1293 49.536 17.088 49.6253 17.1587C49.7186 17.2307 49.8693 17.2773 49.944 17.356C50.016 17.4347 50.0226 17.632 49.9973 17.788C49.9733 17.9427 49.9493 18.0213 49.8213 18.212C49.6933 18.404 49.5586 18.6254 49.432 18.8294C49.3053 19.0307 49.14 19.3014 49.0186 19.38C48.896 19.4574 48.7933 19.4867 48.716 19.5C48.6347 19.512 48.5866 19.5 48.5866 19.6547C48.5866 19.812 48.5786 21.248 48.5866 21.5467C48.6 21.9907 48.5373 21.9827 48.532 22.1813C48.5266 22.3787 48.5266 22.6947 48.4346 22.8467C48.3426 22.996 48.368 23.0547 48.2773 23.1453C48.1867 23.2333 48.124 23.3547 48.0026 23.348C47.8826 23.3413 47.5906 23.1934 47.584 22.9054C47.5773 22.6187 47.6026 22.1747 47.5906 22.0787C47.5773 21.9827 47.512 21.8347 47.5213 21.636C47.536 21.4387 47.536 21.0027 47.512 20.84C47.488 20.68 47.4746 20.3307 47.5053 20.0667C47.536 19.8054 47.5546 19.5894 47.536 19.4627C47.5173 19.3374 47.4973 19.2134 47.396 19.272C47.292 19.332 47.0493 19.6307 46.944 19.6974C46.8427 19.7627 46.604 19.7867 46.448 19.7387C46.288 19.6907 46.1373 19.4747 46.0827 19.3373C46.0387 19.2307 46.004 19.2133 46.0986 19.1453ZM48.676 18.1587C48.7227 18.0787 48.8453 17.924 48.9493 17.8387C49.0507 17.7534 49.08 17.7334 49.1346 17.7134C49.188 17.6934 49.308 17.8013 49.244 17.904C49.1827 18.0053 48.924 18.3093 48.8373 18.4067C48.7506 18.5053 48.664 18.5373 48.6346 18.3947C48.6066 18.252 48.632 18.2413 48.676 18.1587Z" fill="white"></path>
<path d="M53.6267 14.7066C53.4494 14.8653 53.3507 14.9826 53.224 15.1133C53.104 15.2426 52.896 15.5293 52.8787 15.6773C52.8614 15.8266 52.848 15.8906 52.804 15.964C52.756 16.04 52.784 16.084 52.784 16.1946C52.784 16.3066 52.804 16.3426 52.8307 16.3893C52.8614 16.436 52.856 16.4479 52.856 16.5146C52.856 16.5826 52.9147 16.624 52.9707 16.68C53.0294 16.7373 53.104 16.8653 53.212 16.8653C53.3174 16.8653 53.4214 16.8507 53.4854 16.8573C53.548 16.8613 53.588 16.8 53.6467 16.7533C53.7054 16.704 53.816 16.62 53.8574 16.544C53.9654 16.3533 53.9467 16.188 53.9747 16.1133C54.004 16.0373 54.0854 15.9279 54.1494 15.8479C54.2107 15.7666 54.244 15.6013 54.152 15.5866C54.0614 15.572 53.952 15.6053 53.9547 15.4586C53.9587 15.3106 53.9654 15.1613 53.9987 15.0893C54.0347 15.0173 54.1054 14.9173 54.0747 14.8479C54.0467 14.7759 54.0267 14.6573 53.9214 14.644C53.816 14.6293 53.744 14.6013 53.6267 14.7066ZM54.828 15.032C54.8974 14.9373 54.908 14.9093 55.0254 14.8187C55.14 14.7293 55.356 14.6293 55.4934 14.6386C55.6347 14.6493 55.6294 14.6533 55.7214 14.7053C55.8147 14.7573 55.904 14.8 55.972 14.7573C56.0387 14.7147 56.1214 14.7 56.1934 14.7253C56.2654 14.748 56.2974 14.7346 56.3574 14.7C56.4134 14.6666 56.444 14.6666 56.5254 14.744C56.608 14.8186 56.6547 14.8706 56.572 14.956C56.4934 15.04 56.444 15.0519 56.4614 15.1786C56.48 15.3066 56.508 15.412 56.428 15.4973C56.3694 15.5586 56.3574 15.6666 56.2547 15.7666C56.1547 15.8653 56.1267 15.8719 56.0067 15.8759C55.8827 15.8813 55.7374 15.8759 55.6014 15.8039C55.4654 15.7333 55.1147 15.4199 55.0254 15.4013C54.9334 15.3839 54.7787 15.3213 54.7534 15.2106C54.728 15.1026 54.7534 15.1267 54.828 15.032ZM57.948 13.624C58.0814 13.5293 58.2987 13.4533 58.488 13.4013C58.6774 13.3519 58.7947 13.3066 58.9334 13.3666C59.072 13.4266 59.3094 13.5293 59.3173 13.7306C59.3307 13.9333 59.336 14.0093 59.2334 14.1813C59.128 14.3533 58.9947 14.4907 58.8307 14.5547C58.6654 14.6227 58.5694 14.6 58.4774 14.6253C58.3854 14.652 58.324 14.6359 58.208 14.7119C58.096 14.7879 57.7734 14.7787 57.676 14.7933C57.576 14.808 57.496 14.7066 57.584 14.6253C57.6707 14.5453 57.824 14.5306 57.9267 14.344C57.976 14.2533 58.116 14.2027 57.9827 14.132C57.912 14.092 57.876 14.0493 57.86 13.9746C57.8454 13.8973 57.752 13.852 57.7787 13.7907C57.804 13.7307 57.8147 13.7213 57.948 13.624ZM54.8867 16.684C54.8867 16.6 54.9454 16.4666 55.0147 16.5013C55.0814 16.5373 55.1934 16.6 55.3014 16.6547C55.4094 16.7093 55.4507 16.7506 55.516 16.7666C55.5854 16.7813 55.6534 16.8106 55.648 16.928C55.6427 17.044 55.6534 17.1239 55.5987 17.1453C55.548 17.1653 55.5654 17.2053 55.5814 17.256C55.596 17.308 55.6214 17.3573 55.716 17.3413C55.816 17.3266 55.8427 17.2853 55.9374 17.2853C56.0374 17.2853 56.068 17.2773 56.1294 17.3413C56.1907 17.4093 56.288 17.448 56.2774 17.5386C56.268 17.6306 56.2414 17.6813 56.1547 17.808C56.068 17.9333 55.996 18.076 55.9267 18.1773C55.8627 18.2786 55.852 18.272 55.8014 18.364C55.7494 18.4546 55.7454 18.4453 55.7494 18.5453C55.7547 18.6466 55.7294 18.7533 55.876 18.8253C56.0267 18.8946 56.068 18.8906 56.0574 19.056C56.0467 19.224 56.052 19.3213 56.0574 19.436C56.0627 19.552 56.0374 19.632 55.9707 19.7106C55.8574 19.8346 55.4707 20.1547 55.3587 20.2853C55.2454 20.4173 55.1987 20.4213 55.1987 20.5226C55.1987 20.6253 55.1934 20.7053 55.1627 20.7306C55.132 20.756 55.128 20.772 55.132 20.892C55.1374 21.0146 55.148 21.5453 55.1427 21.7426C55.1374 21.9399 55.1014 21.996 55.0707 22.02C55.04 22.0453 55.04 22.0853 55.0507 22.1453C55.0587 22.2066 55.0454 22.284 55.02 22.3333C54.9947 22.3853 54.9947 22.4866 55.0014 22.6119C55.0147 22.7386 54.9947 22.8946 54.9894 22.9866C54.984 23.076 54.8947 23.2546 54.8307 23.3093C54.764 23.3666 54.6867 23.3706 54.592 23.3706C54.5 23.3706 54.4227 23.3053 54.352 23.2399C54.28 23.1719 54.2694 23.0879 54.2694 23.0066C54.2694 22.9253 54.264 22.8146 54.2227 22.764C54.1827 22.7133 54.1854 22.632 54.1827 22.5866C54.1774 22.5413 54.172 22.4919 54.1214 22.4346C54.0694 22.3799 54.064 22.344 54.0547 22.2333C54.044 22.1213 54.1334 21.9399 54.2134 21.8679C54.2907 21.7973 54.2947 21.7426 54.2947 21.6866C54.2947 21.5906 54.3827 21.6 54.3774 21.5C54.372 21.3986 54.4187 21.3227 54.428 21.2213C54.4387 21.1213 54.4494 21.044 54.4387 20.988C54.428 20.9333 54.4027 20.892 54.3467 20.9226C54.2907 20.9533 54.2694 21.0493 54.1974 21.0653C54.124 21.08 54.016 21.1 53.952 21.1653C53.8854 21.2307 53.6014 21.3933 53.4907 21.4786C53.3787 21.5653 53.068 21.7373 52.9814 21.7973C52.8947 21.8586 52.8067 21.9133 52.6894 21.8333C52.572 21.752 52.4867 21.756 52.4534 21.6C52.4227 21.472 52.3587 21.464 52.4227 21.3533C52.4534 21.296 52.4734 21.296 52.4734 21.2053C52.4734 21.116 52.4414 21.0293 52.52 20.964C52.5947 20.8986 53.0014 20.548 53.088 20.452C53.176 20.356 53.2574 20.3253 53.3067 20.2746C53.352 20.2253 53.3987 20.1946 53.4654 20.2093C53.5294 20.2253 53.5907 20.2653 53.5347 20.3413C53.4814 20.4173 53.4907 20.5186 53.5707 20.528C53.652 20.5386 53.7827 20.5333 53.8907 20.5026C53.9987 20.4733 54.3267 20.3813 54.464 20.1946C54.5307 20.104 54.484 20.0066 54.392 20.0479C54.3 20.0893 54.124 20.1133 54.0387 20.0946C53.952 20.072 53.852 19.9559 53.9414 19.8759C54.0267 19.7946 54.4694 19.5466 54.556 19.492C54.6454 19.436 54.68 19.3507 54.608 19.2933C54.536 19.2387 54.3974 19.1266 54.3467 19.0306C54.2947 18.936 54.2854 18.9147 54.3574 18.8547C54.428 18.7933 54.6454 18.672 54.708 18.6213C54.7694 18.572 54.7787 18.516 54.82 18.46C54.8947 18.3547 54.856 18.2626 54.7694 18.2973C54.68 18.3346 54.6134 18.3893 54.5214 18.46C54.428 18.5307 54.1667 18.7573 54.0774 18.8493C53.9934 18.94 53.736 19.192 53.5854 19.2693C53.44 19.3453 53.352 19.376 53.2734 19.4306C53.196 19.4866 53.1547 19.4613 53.0587 19.396C52.9614 19.3293 52.912 19.2586 52.8654 19.2039C52.8174 19.1493 52.848 19.1026 52.848 19.0306C52.848 18.96 52.912 18.9253 52.9147 18.844C52.9227 18.7626 52.8894 18.6827 52.9734 18.6213C53.0534 18.5613 53.1547 18.4653 53.2227 18.424C53.288 18.3853 53.3574 18.368 53.4347 18.3946C53.5094 18.4186 53.6374 18.4493 53.704 18.4187C53.7734 18.3893 53.8054 18.368 53.9134 18.364C53.9774 18.36 54.004 18.3346 54.1 18.272C54.1974 18.212 54.3667 18.0946 54.464 18.02C54.5614 17.944 54.6507 17.9333 54.6974 17.928C54.744 17.924 54.8054 17.8733 54.844 17.832C54.8867 17.7933 54.9747 17.7333 54.928 17.656C54.8814 17.58 54.8387 17.58 54.7534 17.58C54.6667 17.58 54.536 17.5293 54.48 17.488C54.4227 17.448 54.3827 17.3466 54.4494 17.292C54.5147 17.2373 54.7134 17.1146 54.7867 17.0586C54.8667 17.0026 54.928 16.928 54.928 16.8666C54.928 16.8066 54.8867 16.7706 54.8867 16.684ZM55.5734 17.9693C55.596 17.908 55.7347 17.9186 55.704 18.02C55.6734 18.1226 55.6454 18.1266 55.6094 18.1866C55.5534 18.284 55.5014 18.252 55.4907 18.1773C55.484 18.12 55.5147 18.0946 55.5427 18.0586C55.5654 18.0253 55.56 18.0053 55.5734 17.9693ZM55.3173 19.4506C55.3733 19.3866 55.432 19.3986 55.4547 19.436C55.4907 19.4946 55.4854 19.5266 55.4347 19.5679C55.384 19.6133 55.32 19.6573 55.2787 19.6093C55.24 19.5586 55.2373 19.5386 55.3173 19.4506ZM58.0467 16.2453C58.188 16.1479 58.588 15.9387 58.7054 15.888C58.8214 15.8347 58.8947 15.8533 59.0134 15.888C59.184 15.9413 59.34 16.14 59.4174 16.2253C59.4894 16.3106 59.508 16.5067 59.4734 16.6267C59.4427 16.7467 59.32 16.928 59.2307 17.06C59.08 17.2853 58.8334 17.4306 58.7547 17.556C58.672 17.6813 58.5774 17.84 58.5187 17.916C58.4627 17.9907 58.472 18.0066 58.4694 18.1133C58.4654 18.2186 58.4574 18.3467 58.48 18.4187C58.504 18.4893 58.5774 18.5626 58.56 18.672C58.5467 18.7826 58.444 18.9906 58.308 19.02C58.168 19.052 58.024 19.0093 57.94 18.9413C57.8547 18.872 57.7374 18.7479 57.7347 18.5426C57.7294 18.3399 57.7547 18.096 57.7627 17.984C57.7707 17.8693 57.7787 17.8053 57.8507 17.6987C57.924 17.5947 58.2734 17.212 58.3494 16.992C58.3854 16.8893 58.416 16.772 58.304 16.708C58.1934 16.644 58.14 16.5679 58.0067 16.5453C57.8787 16.5226 57.8094 16.4106 58.0467 16.2453ZM56.956 18.228C56.9507 18.4213 56.8534 18.4719 56.8614 18.5733C56.8667 18.6613 56.892 18.7733 56.8534 18.8093C56.8187 18.8479 56.8107 18.8679 56.8027 18.9426C56.7974 19.0173 56.772 19.044 56.7587 19.1253C56.7467 19.2066 56.7414 19.5453 56.7334 19.7386C56.728 19.9346 56.6307 20.1346 56.5934 20.3666C56.556 20.584 56.5694 20.7373 56.556 21.0386C56.544 21.308 56.6254 21.34 56.7667 21.4946C56.9054 21.6533 57.1107 21.8213 57.2 21.8533C57.2894 21.8853 57.384 21.892 57.4534 21.8853C57.5227 21.8787 57.5294 21.948 57.7214 21.9413C57.912 21.936 59.492 21.916 59.7734 21.9226C60.0534 21.928 60.3267 21.8973 60.468 21.7907C60.608 21.684 60.7667 21.5399 60.8054 21.4146C60.844 21.2893 60.8827 21.144 60.824 21.0253C60.732 20.8306 60.6774 20.7 60.596 20.5746C60.5134 20.448 60.488 20.3799 60.48 20.2786C60.472 20.1786 60.4294 20.0533 60.3574 19.9586C60.288 19.8653 60.288 19.752 60.288 19.6773C60.288 19.6013 60.1934 19.356 60.1174 19.3C60.04 19.244 59.9014 19.1746 59.9014 19.3759C59.9014 19.5759 59.9254 19.7333 59.92 19.828C59.9147 19.9213 59.932 19.9587 59.9574 19.996C59.984 20.0347 59.996 20.0853 59.996 20.172C59.996 20.26 59.996 20.6426 60.0094 20.7679C60.0227 20.8933 59.996 20.9947 59.8614 21.032C59.7307 21.0693 59.6707 21.088 59.628 21.12C59.5814 21.1506 59.5 21.1333 59.448 21.1333C59.3974 21.1333 59.3774 21.1893 59.34 21.2C59.3027 21.2133 59.0467 21.196 58.9827 21.196C58.8614 21.196 58.908 21.2573 58.8054 21.2573C58.7214 21.2573 58.212 21.2453 58.1214 21.2573C58.0347 21.2693 57.9707 21.1893 57.876 21.1893C57.7787 21.1893 57.696 21.2133 57.62 21.1506C57.5427 21.088 57.4347 21.0946 57.4347 20.936C57.4347 20.78 57.44 20.4173 57.4534 20.292C57.4654 20.1653 57.492 20.0653 57.5427 20.0026C57.5947 19.94 57.5947 19.8773 57.5894 19.8213C57.5814 19.7653 57.64 19.7893 57.64 19.696C57.64 19.6013 57.6507 19.4826 57.6507 19.3759C57.6507 19.2693 57.5814 19.1253 57.5734 19.0679C57.568 19.0119 57.5227 18.9547 57.4867 18.8987C57.448 18.8413 57.44 18.7799 57.448 18.7093C57.4534 18.6413 57.392 18.4906 57.3334 18.3973C57.276 18.3026 57.328 18.2893 57.2427 18.2213C57.1614 18.1507 56.964 17.9973 56.956 18.228Z" fill="white"></path>
<path d="M65.9254 13.9774C65.9334 14.2201 65.908 14.2281 65.9414 14.3041C65.972 14.3761 66.008 14.4561 65.9894 14.8028C65.98 15.0468 65.9894 15.0361 66.0134 15.0881C66.036 15.1428 66.0747 15.1521 66.0694 15.2841C66.064 15.4747 66.056 16.9694 66.0454 17.0974C66.036 17.2241 65.9894 17.2961 65.992 17.3721C66.0054 17.6508 65.9307 17.6067 65.9307 17.7121C65.9307 17.8161 65.9414 17.9908 65.936 18.0521C65.9307 18.1148 65.864 18.1334 65.8694 18.2507C65.8747 18.3694 65.9027 18.4934 65.8774 18.5774C65.8534 18.6641 65.808 18.6761 65.8027 18.7721C65.7974 18.8654 65.7614 19.1454 65.5387 19.2881C65.4267 19.3574 65.1134 19.4147 64.9814 19.4347C64.8454 19.4521 64.6147 19.5468 64.496 19.5468C64.376 19.5468 64.2867 19.5521 64.1814 19.6054C64.076 19.6561 63.9334 19.7415 63.812 19.7321C63.692 19.7228 63.4614 19.7321 63.356 19.6655C63.2494 19.6001 63.1694 19.5761 63.1161 19.6134C63.0081 19.6908 62.8907 19.7561 62.9547 19.9347C63.016 20.1147 63.1107 20.1534 63.1161 20.2534C63.1214 20.3521 63.16 20.4361 63.232 20.5308C63.3027 20.6268 63.2134 20.6868 63.3027 20.7441C63.4494 20.8334 63.428 21.0094 63.664 20.9707C63.9 20.9334 63.9667 20.8441 64.1454 20.7774C64.3227 20.7121 65.304 20.2294 65.3934 20.2147C65.4854 20.2001 65.5627 20.1761 65.5574 20.3147C65.552 20.4507 65.5774 20.4841 65.5667 20.5494C65.5574 20.6161 65.5334 20.6454 65.488 20.7014C65.444 20.7587 65.4694 20.7854 65.444 20.9054C65.424 21.0241 65.2494 21.5107 64.876 21.8841C64.5014 22.2574 64.092 22.4321 64.0027 22.4655C63.908 22.4988 63.6201 22.4988 63.5494 22.4854C63.4774 22.4694 63.4134 22.3694 63.3014 22.4041C63.1854 22.4374 63.096 22.5521 63.2267 22.6694C63.356 22.7868 63.692 22.9668 63.8774 22.9721C64.0587 22.9761 64.228 23.0574 64.328 23.0188C64.4267 22.9828 64.5427 22.9854 64.712 22.8867C64.8814 22.7867 65.4934 22.2348 65.7494 21.6334C66.0054 21.0334 66.084 20.7481 66.12 20.6734C66.1507 20.5974 66.1454 20.4695 66.1507 20.3321C66.156 20.1948 66.192 20.1387 66.24 20.0761C66.2867 20.0147 66.248 19.9694 66.2694 19.8921C66.2867 19.8174 66.34 19.7467 66.436 19.6761C66.5307 19.6054 66.6147 19.6174 66.7814 19.5227C66.9494 19.4294 68.0894 18.8987 68.4107 18.7761C68.7334 18.6521 68.9294 18.5894 69.056 18.4308C69.1227 18.3468 69.184 18.1668 69.056 18.0521C68.9254 17.9388 68.9147 17.9241 68.8334 17.9241C68.7534 17.9241 68.7534 17.8294 68.656 17.8454C68.5587 17.8601 68.5254 17.8721 68.4387 17.7935C68.3534 17.7121 68.2107 17.6747 68.128 17.7841C68.0467 17.8934 67.9974 18.0014 67.8774 18.1147C67.7574 18.2281 67.5107 18.3468 67.3574 18.4081C67.2067 18.4694 66.96 18.5601 66.804 18.6254C66.6534 18.6908 66.5707 18.7094 66.5654 18.5694C66.5614 18.4254 66.576 18.3374 66.6147 18.2374C66.6534 18.1374 66.676 17.9388 66.7094 17.8214C66.7427 17.7028 66.8454 17.6228 66.84 17.4801C66.8347 17.3388 66.8574 17.2401 66.896 17.1121C66.956 16.9227 67.016 16.8241 67.0214 16.7241C67.0267 16.6241 67.0294 16.4974 67.06 16.4308C67.0907 16.3654 67.132 16.3307 67.1574 16.1561C67.18 15.9827 67.2134 15.7828 67.2134 15.5655C67.2134 15.3468 67.1934 15.2295 67.124 15.1295C67.0534 15.0295 67.048 14.8788 66.968 14.7988C66.8934 14.7188 66.8574 14.6561 66.8454 14.5761C66.8307 14.4961 66.7347 14.4254 66.6147 14.2881C66.4947 14.1508 66.2974 13.9508 66.192 13.8628C66.084 13.7721 65.9227 13.8374 65.9254 13.9774Z" fill="white"></path>
<path d="M67.2679 20.8413C67.4426 20.9933 67.7772 21.2267 68.0519 21.4133C68.3226 21.6 68.7506 21.824 68.9226 21.824C69.0933 21.824 69.2226 21.824 69.3506 21.8786C69.4772 21.932 69.6213 21.976 69.7573 21.976C69.8959 21.976 70.1306 21.996 70.3026 21.976C70.4773 21.96 70.6053 21.9853 70.4106 22.2013C70.2226 22.4146 70.0946 22.4613 69.9599 22.5853C69.8213 22.712 69.7959 22.684 69.7213 22.7187C69.6466 22.7573 69.6213 22.7734 69.5399 22.8987C69.4573 23.0227 69.2853 23.212 69.0586 23.2373C68.8293 23.2666 68.6026 23.212 68.4586 23.0866C68.3133 22.9613 68.2693 23.0333 68.1413 22.8187C68.0133 22.604 67.9586 22.4333 67.8773 22.2547C67.7959 22.0747 67.7239 21.9413 67.5959 21.78C67.4679 21.6187 67.3439 21.4347 67.2679 21.324C67.2213 21.2547 67.1759 21.256 67.1319 21.1773C67.0906 21.1027 67.1159 21.0573 67.1119 21.0093C67.1066 20.9613 67.0239 20.92 67.0519 20.8506C67.0786 20.7813 67.0959 20.6893 67.2679 20.8413Z" fill="white"></path>
<path d="M73.6199 13.536C73.7679 13.6946 73.8559 13.744 74.0519 13.8133C74.2292 13.8773 74.6186 14.4226 74.6826 14.6746C74.7639 15 74.6959 15.404 74.7053 15.7C74.7186 15.996 74.7639 16.156 74.6133 16.2813C74.4626 16.4053 74.4626 16.5667 74.3599 16.316C74.2546 16.0653 74.2679 15.7573 74.0346 15.6306C73.8013 15.5066 73.6866 15.3586 73.4453 15.4039C73.1999 15.4493 73.1199 15.472 73.2252 15.7C73.3306 15.928 73.3999 16.1106 73.3759 16.6679C73.3586 17.0333 73.4333 17.2733 73.5706 17.3866C73.7119 17.5013 73.9186 17.66 74.0679 17.66C74.2213 17.66 74.2546 17.74 74.1493 17.8426C74.0466 17.944 72.8306 19.0626 72.3932 19.7786C72.1652 20.1466 72.1826 20.1773 72.3106 20.316C72.4359 20.452 72.4826 20.5653 72.8172 20.5533C73.1559 20.5426 73.4199 20.4959 73.5706 20.3373C73.7226 20.1773 74.3706 19.7226 74.6133 19.4946C74.8573 19.2666 75.6452 18.6173 76.1879 18.1386C76.6292 17.7506 77.2466 17.568 77.4252 17.4426C77.6919 17.2613 77.7733 17.3293 77.8786 17.2613C77.9813 17.1933 78.1333 16.9533 78.2373 16.8853C78.3399 16.8173 78.6626 16.7826 78.8159 16.7613C78.9679 16.736 79.2079 16.7493 79.0133 17.0107C78.8159 17.2733 78.5733 17.5013 78.4119 17.6133C78.2479 17.7293 77.4159 18.2066 77.3106 18.276C77.2079 18.344 77.1133 18.3893 76.9053 18.3773C76.6959 18.3667 76.6292 18.4226 76.4186 18.5253C76.2092 18.6293 76.1533 18.5253 75.9679 18.7066C75.7839 18.8906 75.7012 18.948 75.5866 19.108C75.4719 19.2666 75.4813 19.3813 75.5973 19.472C75.7119 19.5626 75.7372 19.6093 75.8866 19.5413C76.0372 19.472 76.1533 19.4826 76.2453 19.4386C76.3399 19.392 76.5013 19.4146 76.4653 19.528C76.4319 19.644 76.3732 19.7226 76.3959 19.872C76.4186 20.0186 76.5106 20.1666 76.2093 20.2813C75.9093 20.3946 75.5506 20.4746 75.3426 20.5426C75.1359 20.612 74.5666 20.816 74.3466 20.9306C74.1266 21.044 73.6066 21.2613 73.4199 21.3973C73.2372 21.5333 73.0639 21.6013 72.9226 21.728C72.7839 21.852 72.7026 21.9786 72.7386 22.172C72.7746 22.3666 72.9133 22.492 73.0973 22.5026C73.2839 22.5133 73.3759 22.652 73.5013 22.708C73.6293 22.7653 73.7346 22.7867 73.8733 22.8547C74.0106 22.924 74.1492 23.004 74.4292 23.232C74.7052 23.46 75.4119 24.0066 75.7013 24.2013C75.9906 24.3946 76.1879 24.532 76.3626 24.52C76.5346 24.508 76.6066 24.52 76.7773 24.36C76.9519 24.2013 77.0333 24.2013 77.0106 23.9053C76.9879 23.608 76.8946 22.9133 76.8946 22.4679C76.8946 22.0239 76.9746 22.0706 76.9519 21.8173C76.9292 21.568 76.8946 21.4306 76.9292 21.3053C76.9626 21.1813 77.0213 21.1013 77.1826 21.0907C77.3466 21.0787 78.0639 21.0333 78.2706 21.0547C78.4813 21.0787 78.5479 21.124 78.7346 20.9866C78.9186 20.8506 78.9186 20.8279 78.9426 20.6679C78.9679 20.5079 79.0826 20.532 78.9292 20.316C78.7799 20.0987 78.5826 20.0187 78.4813 19.8933C78.3759 19.768 78.3292 19.7119 78.1199 19.8373C77.9119 19.9613 77.8332 20.0306 77.6226 20.0413C77.4159 20.0533 77.3799 20.064 77.2866 20.0533C77.1946 20.0413 77.1133 20.0413 77.1826 19.86C77.2533 19.6773 77.3466 19.4827 77.5439 19.3133C77.7386 19.1413 77.8199 19.0626 77.8426 18.936C77.8666 18.8106 77.8426 18.72 77.8426 18.572C77.8426 18.4226 77.8332 18.4013 78.0266 18.2866C78.2252 18.1733 78.8826 17.6946 79.1026 17.5013C79.3239 17.3079 79.7613 16.9426 79.6493 16.5333C79.5799 16.2813 79.4186 16.1893 79.1852 16.1679C78.9546 16.1453 78.7213 16.156 78.6066 16.156C78.4453 16.156 78.4479 16.0959 78.5373 15.9733C78.6266 15.8519 78.6826 15.82 78.7292 15.7413C78.7732 15.6653 78.8799 15.4373 79.0053 15.288C79.1279 15.1387 79.3693 14.7506 79.4999 14.628C79.6279 14.5066 79.7559 14.3013 79.8532 14.1733C79.9506 14.0466 79.9333 13.8853 79.9333 13.7693C79.9333 13.6546 79.8639 13.4773 79.6999 13.388C79.5386 13.2987 79.5186 13.2227 79.3493 13.2827C79.1799 13.3427 78.8799 13.5093 78.7013 13.632C78.5213 13.7533 77.6479 14.224 77.3333 14.452C77.0186 14.6787 76.5519 14.916 76.4439 14.9773C76.3399 15.0387 76.2132 15 76.2879 14.8613C76.3599 14.7226 76.4119 14.624 76.5759 14.524C76.7386 14.424 76.9293 14.2733 77.0639 14.192C77.1999 14.108 77.4972 13.892 77.5532 13.7586C77.6106 13.6253 77.6706 13.464 77.5746 13.3827C77.4799 13.2987 77.2853 13.1333 77.1639 13.0346C77.0466 12.9346 76.9572 12.8613 76.8946 12.8506C76.8332 12.8386 76.7826 12.7786 76.7026 12.7346C76.6266 12.6893 76.5799 12.7026 76.5013 12.812C76.4213 12.9226 76.4346 13 76.4773 13.0773C76.5239 13.156 76.4906 13.2613 76.5292 13.3373C76.5706 13.4159 76.5626 13.4786 76.6133 13.5039C76.6373 13.5146 76.6133 13.5707 76.5759 13.644C76.5346 13.7147 76.5626 13.8039 76.4906 13.9039C76.4159 14.0026 76.2933 14.192 76.2013 14.284C76.1146 14.3786 76.0852 14.44 75.9559 14.3627C75.8252 14.284 75.6399 14.1186 75.4093 14.008C75.1799 13.8973 74.8692 13.804 74.7519 13.6813C74.6332 13.5586 74.4932 13.4427 74.2959 13.3827C74.1012 13.3227 73.8293 13.2827 73.7119 13.288C73.5933 13.2947 73.4652 13.376 73.6199 13.536ZM75.2413 14.972C75.2226 15.0986 75.2493 15.2426 75.1746 15.3093C75.1026 15.3746 75.1186 15.432 75.0892 15.4973C75.0612 15.5653 75.0533 15.636 75.0746 15.736C75.0893 15.836 75.1359 15.9306 75.2226 15.8679C75.3146 15.8079 75.6479 15.592 75.7199 15.5146C75.7946 15.4373 75.8506 15.288 75.7479 15.248C75.6479 15.208 75.5986 15.2266 75.5359 15.2039C75.4666 15.1826 75.4372 15.1586 75.4559 15.0666C75.4839 14.9 75.2586 14.8453 75.2413 14.972ZM75.2413 14.972C75.2226 15.0986 75.2493 15.2426 75.1746 15.3093C75.1026 15.3746 75.1186 15.432 75.0892 15.4973C75.0612 15.5653 75.0533 15.636 75.0746 15.736C75.0893 15.836 75.1359 15.9306 75.2226 15.8679C75.3146 15.8079 75.6479 15.592 75.7199 15.5146C75.7946 15.4373 75.8506 15.288 75.7479 15.248C75.6479 15.208 75.5986 15.2266 75.5359 15.2039C75.4666 15.1826 75.4372 15.1586 75.4559 15.0666C75.4839 14.9 75.2586 14.8453 75.2413 14.972ZM75.6119 16.0453C75.4946 16.1293 75.0506 16.4613 74.9199 16.6013C74.7932 16.7373 74.5826 17.0786 74.4599 17.2586C74.2626 17.5466 74.3413 17.6427 74.5026 17.552C74.6213 17.4853 74.5906 17.4586 74.6572 17.4453C74.7239 17.436 74.8586 17.3586 74.9666 17.264C75.0746 17.1693 75.2412 17.1319 75.3532 17.1039C75.4666 17.0773 75.5506 17.0266 75.7066 16.9706C75.8653 16.9159 75.8759 16.9427 76.0239 16.9107C76.1706 16.8773 76.2319 16.8426 76.2986 16.8C76.3653 16.756 76.3706 16.7373 76.2932 16.6506C76.2132 16.5613 76.2132 16.516 76.1239 16.516C75.9732 16.516 75.8706 16.5 75.7986 16.5666C75.7253 16.632 75.5226 16.6706 75.5559 16.5506C75.5919 16.4293 75.6066 16.3173 75.6733 16.2226C75.7426 16.1293 75.7306 15.9626 75.6119 16.0453ZM75.6119 16.0453C75.4946 16.1293 75.0506 16.4613 74.9199 16.6013C74.7932 16.7373 74.5826 17.0786 74.4599 17.2586C74.2626 17.5466 74.3413 17.6427 74.5026 17.552C74.6213 17.4853 74.5906 17.4586 74.6572 17.4453C74.7239 17.436 74.8586 17.3586 74.9666 17.264C75.0746 17.1693 75.2412 17.1319 75.3532 17.1039C75.4666 17.0773 75.5506 17.0266 75.7066 16.9706C75.8653 16.9159 75.8759 16.9427 76.0239 16.9107C76.1706 16.8773 76.2319 16.8426 76.2986 16.8C76.3653 16.756 76.3706 16.7373 76.2932 16.6506C76.2132 16.5613 76.2132 16.516 76.1239 16.516C75.9732 16.516 75.8706 16.5 75.7986 16.5666C75.7253 16.632 75.5226 16.6706 75.5559 16.5506C75.5919 16.4293 75.6066 16.3173 75.6733 16.2226C75.7426 16.1293 75.7306 15.9626 75.6119 16.0453ZM76.6413 15.8853C76.7159 15.7747 76.9239 15.7306 76.9239 15.936C76.9239 16.14 76.9159 16.2453 76.8386 16.3173C76.7599 16.3893 76.7386 16.384 76.7106 16.4666C76.6826 16.5506 76.5986 16.5666 76.5519 16.484C76.5079 16.4013 76.5519 16.2839 76.5186 16.2013C76.4826 16.1186 76.5706 15.996 76.6413 15.8853ZM77.7813 14.6506C77.8999 14.536 77.9586 14.4786 78.1653 14.3386C78.3759 14.2026 78.6092 14.0707 78.7212 14.0187C78.8372 13.9707 78.9079 13.9586 78.9546 13.9306C78.9972 13.904 79.1546 13.9133 79.1386 14.0467C79.1239 14.18 79.0666 14.2973 79.0546 14.3666C79.0439 14.44 78.8466 14.7947 78.7013 15.0213C78.5519 15.248 78.2906 15.72 78.2172 15.9226C78.1452 16.1293 78.0533 16.2226 78.0333 16.3346C78.0066 16.4439 77.9866 16.44 77.9066 16.516C77.8306 16.5947 77.7813 16.6613 77.6426 16.6666C77.5026 16.6706 77.5172 16.6773 77.4506 16.6706C77.3852 16.6666 77.3799 16.616 77.4559 16.5293C77.5359 16.44 77.5866 16.356 77.5866 16.2893C77.5866 16.2226 77.6479 16.168 77.6999 16.108C77.7506 16.0453 77.7559 16.0013 77.7612 15.952C77.7666 15.9013 77.8226 15.8747 77.8639 15.8133C77.9026 15.752 77.9026 15.7147 77.9146 15.624C77.9253 15.536 77.9866 15.56 77.9759 15.4253C77.9639 15.2933 78.0066 15.1666 77.9306 15.0706C77.8506 14.9773 77.8506 14.8946 77.7733 14.8333C77.6946 14.772 77.7333 14.7 77.7813 14.6506ZM73.6146 19.1786C73.7293 19.0173 74.2373 18.336 74.5639 18.0813C74.8893 17.8266 75.2386 17.66 75.4333 17.5586C75.6333 17.46 75.9093 17.3987 75.9786 17.352C76.0453 17.3053 76.1759 17.3253 76.2546 17.3107C76.3372 17.2987 76.4186 17.2453 76.5266 17.2386C76.6372 17.2306 76.7679 17.272 76.6292 17.372C76.4932 17.472 75.6986 18.0479 75.5026 18.1679C75.3053 18.2879 74.3746 18.9373 74.1626 19.0706C73.9519 19.2053 73.8399 19.248 73.7346 19.3133C73.5733 19.412 73.4959 19.3386 73.6146 19.1786ZM73.9146 22.1733C74.1186 22.0399 74.3333 21.928 74.5133 21.8493C74.6959 21.7733 75.4092 21.5613 75.5919 21.516C75.7706 21.4707 75.9986 21.44 76.0453 21.516C76.1199 21.6333 76.0212 21.6173 76.0212 21.7493C76.0199 21.952 76.0292 22.116 76.0292 22.1773C76.0266 22.2373 76.0839 22.3067 76.0813 22.4213C76.0786 22.5333 76.0839 22.8413 76.0733 22.9506C76.0653 23.0613 76.0786 23.1146 76.0453 23.1693C76.0146 23.2226 76.0199 23.2506 76.0199 23.3173C76.0199 23.3826 76.0319 23.4493 75.9453 23.4813C75.8599 23.512 75.8959 23.5386 75.7279 23.4586C75.5612 23.3786 75.0746 23.1653 74.9252 23.0706C74.7772 22.9759 74.5959 22.84 74.4053 22.744C74.2186 22.6507 73.9879 22.4987 73.8733 22.452C73.7573 22.404 73.7119 22.3066 73.9146 22.1733Z" fill="white"></path>
<path d="M42.18 3.09338V8.12671H40.4107V4.66668C39.8574 4.97868 39.1867 5.22134 38.3987 5.39201V4.38804C39.5573 4.1387 40.3387 3.70804 40.7454 3.09338H42.18Z" fill="white"></path>
<path d="M50.7681 6.81204L52.4974 6.66008C52.6121 7.14542 52.9614 7.38938 53.5401 7.38938C53.8547 7.38938 54.1027 7.31205 54.2774 7.15872C54.4561 7.00405 54.5481 6.8214 54.5481 6.61073C54.5481 6.39873 54.4587 6.21873 54.2827 6.06939C54.1081 5.92273 53.8774 5.85071 53.5907 5.85071C53.3814 5.85071 53.1507 5.87738 52.8947 5.92805L53.0307 5.04407C53.0867 5.04807 53.1427 5.05208 53.1961 5.05208C53.4987 5.05208 53.7414 4.99474 53.9361 4.88007C54.1281 4.76807 54.2281 4.6214 54.2281 4.43873C54.2281 4.28806 54.1574 4.16272 54.0187 4.06405C53.8801 3.96672 53.6854 3.91607 53.4454 3.91607C52.9147 3.91607 52.6014 4.1374 52.5174 4.58007L50.8787 4.38808C51.1467 3.52541 52.0241 3.09342 53.5041 3.09342C54.3161 3.09342 54.9281 3.2214 55.3427 3.47473C55.7601 3.72806 55.9681 4.02405 55.9681 4.36138C55.9681 4.80538 55.6147 5.1547 54.9054 5.41204C55.3814 5.48804 55.7401 5.6307 55.9774 5.84003C56.2161 6.04803 56.3334 6.29872 56.3334 6.59472C56.3334 7.04139 56.0907 7.4227 55.6014 7.74003C55.1121 8.05336 54.4441 8.21204 53.5907 8.21204C52.8321 8.21204 52.2001 8.09341 51.6974 7.85741C51.2014 7.62141 50.8894 7.27204 50.7681 6.81204Z" fill="white"></path>
<path d="M57.1787 6.81204L58.9107 6.66008C59.0254 7.14542 59.372 7.38938 59.9534 7.38938C60.268 7.38938 60.5134 7.31205 60.6907 7.15872C60.8694 7.00405 60.9587 6.8214 60.9587 6.61073C60.9587 6.39873 60.872 6.21873 60.696 6.06939C60.5187 5.92273 60.288 5.85071 60.004 5.85071C59.7947 5.85071 59.5614 5.87738 59.308 5.92805L59.44 5.04407C59.4974 5.04807 59.5534 5.05208 59.608 5.05208C59.9094 5.05208 60.1574 4.99474 60.3494 4.88007C60.544 4.76807 60.6414 4.6214 60.6414 4.43873C60.6414 4.28806 60.5707 4.16272 60.432 4.06405C60.2934 3.96672 60.1014 3.91607 59.856 3.91607C59.3227 3.91607 59.016 4.1374 58.9307 4.58007L57.292 4.38808C57.56 3.52541 58.4347 3.09342 59.9174 3.09342C60.7294 3.09342 61.3414 3.2214 61.756 3.47473C62.1734 3.72806 62.3814 4.02405 62.3814 4.36138C62.3814 4.80538 62.028 5.1547 61.3187 5.41204C61.7974 5.48804 62.1534 5.6307 62.392 5.84003C62.6294 6.04803 62.7467 6.29872 62.7467 6.59472C62.7467 7.04139 62.504 7.4227 62.0147 7.74003C61.5254 8.05336 60.8547 8.21204 60.004 8.21204C59.244 8.21204 58.6107 8.09341 58.112 7.85741C57.612 7.62141 57.3 7.27204 57.1787 6.81204Z" fill="white"></path>
<path d="M35.5773 19.0706C35.7573 18.9626 35.9107 18.9546 36.0453 18.8693C36.1827 18.7866 36.4213 18.6693 36.548 18.6013C36.676 18.5346 36.856 18.56 36.7013 18.7026C36.548 18.8453 36.2667 19.0293 36.1053 19.1226C35.9427 19.2146 35.86 19.256 35.7573 19.264C35.6547 19.2733 35.6627 19.356 35.536 19.324C35.4053 19.2893 35.3987 19.1799 35.5773 19.0706Z" fill="#0C3B66"></path>
<path d="M73.6146 19.1787C73.7293 19.0174 74.2373 18.336 74.5639 18.0814C74.8893 17.8267 75.2386 17.66 75.4333 17.5587C75.6333 17.46 75.9093 17.3987 75.9786 17.3521C76.0453 17.3054 76.1759 17.3254 76.2546 17.3107C76.3373 17.2987 76.4186 17.2454 76.5266 17.2387C76.6373 17.2307 76.7679 17.272 76.6293 17.372C76.4933 17.472 75.6986 18.048 75.5026 18.168C75.3053 18.288 74.3746 18.9373 74.1626 19.0707C73.9519 19.2053 73.8399 19.2481 73.7346 19.3134C73.5733 19.4121 73.4959 19.3387 73.6146 19.1787Z" fill="#0C3B66"></path>
<path d="M75.6119 16.0453C75.4946 16.1293 75.0506 16.4613 74.9199 16.6013C74.7932 16.7373 74.5826 17.0787 74.4599 17.2587C74.2626 17.5467 74.3413 17.6427 74.5026 17.552C74.6213 17.4853 74.5906 17.4586 74.6572 17.4453C74.7239 17.436 74.8586 17.3587 74.9666 17.264C75.0746 17.1693 75.2412 17.132 75.3532 17.104C75.4666 17.0773 75.5506 17.0266 75.7066 16.9706C75.8653 16.916 75.8759 16.9427 76.0239 16.9107C76.1706 16.8773 76.2319 16.8427 76.2986 16.8C76.3653 16.756 76.3706 16.7373 76.2933 16.6506C76.2133 16.5613 76.2132 16.516 76.1239 16.516C75.9732 16.516 75.8706 16.5 75.7986 16.5667C75.7253 16.632 75.5226 16.6706 75.5559 16.5506C75.5919 16.4293 75.6066 16.3173 75.6733 16.2227C75.7426 16.1293 75.7306 15.9626 75.6119 16.0453Z" fill="#0C3B66"></path>
<path d="M48.676 18.1587C48.7227 18.0787 48.8454 17.924 48.9494 17.8387C49.0507 17.7534 49.08 17.7334 49.1347 17.7134C49.188 17.6934 49.308 17.8013 49.244 17.904C49.1827 18.0053 48.924 18.3093 48.8373 18.4067C48.7507 18.5053 48.664 18.5374 48.6347 18.3947C48.6067 18.252 48.632 18.2414 48.676 18.1587Z" fill="#0C3B66"></path>
<path d="M80.3893 58.9813C80.3893 58.6533 80.6546 58.384 80.9853 58.384C81.3133 58.384 81.5826 58.6533 81.5826 58.9813C81.5826 59.312 81.3133 59.5773 80.9853 59.5773C80.6546 59.5773 80.3893 59.312 80.3893 58.9813Z" fill="#0C3B66"></path>
<path d="M20.4707 59.3601C20.4707 59.0321 20.7387 58.7667 21.068 58.7667C21.3974 58.7667 21.6654 59.0321 21.6654 59.3601C21.6654 59.6934 21.3974 59.9574 21.068 59.9574C20.7387 59.9574 20.4707 59.6934 20.4707 59.3601Z" fill="#0C3B66"></path>
<path d="M44.4667 6.99196L46.1866 6.85199C46.2866 7.21465 46.552 7.396 46.9906 7.396C47.3106 7.396 47.5613 7.29466 47.744 7.09066C47.928 6.88532 48.0453 6.52932 48.0946 6.01598L48.076 6.00264C47.6947 6.3053 47.2 6.45863 46.5933 6.45863C45.9453 6.45863 45.4053 6.29999 44.9693 5.98532C44.5387 5.66932 44.324 5.27594 44.324 4.80661C44.324 4.30794 44.5666 3.89728 45.0533 3.57594C45.5373 3.25328 46.184 3.09333 46.9906 3.09333C47.9426 3.09333 48.6613 3.31599 49.1493 3.75999C49.6413 4.20133 49.8866 4.81464 49.8866 5.60264C49.8866 6.41597 49.628 7.05729 49.1133 7.52262C48.5973 7.98662 47.8427 8.21729 46.8427 8.21729C46.2053 8.21729 45.6813 8.1133 45.2707 7.90264C44.864 7.69197 44.596 7.38796 44.4667 6.99196Z" fill="white"></path>
<path d="M47.9947 4.84137C47.9947 4.5787 47.8947 4.35867 47.692 4.18134C47.4973 4.00267 47.248 3.91604 46.9493 3.91604C46.6733 3.91604 46.4427 3.99601 46.2613 4.15334C46.088 4.31334 46 4.52933 46 4.80667C46 5.06933 46.0907 5.28003 46.2733 5.4387C46.46 5.59603 46.7027 5.67737 47.0013 5.67737C47.288 5.67737 47.5213 5.60268 47.708 5.45334C47.8987 5.30268 47.9947 5.0987 47.9947 4.84137Z" fill="#0C3B66"></path>
</svg><style>@media (prefers-color-scheme: light) { :root { filter: none; } }
</style></svg>