<?xml version="1.0" standalone="no"?>
<!DOCTYPE svg PUBLIC "-//W3C//DTD SVG 20010904//EN"
 "http://www.w3.org/TR/2001/REC-SVG-20010904/DTD/svg10.dtd">
<svg version="1.0" xmlns="http://www.w3.org/2000/svg"
 width="896.000000pt" height="896.000000pt" viewBox="0 0 896.000000 896.000000"
 preserveAspectRatio="xMidYMid meet">
<metadata>
Created by potrace 1.14, written by Peter Selinger 2001-2017
</metadata>
<g transform="translate(0.000000,896.000000) scale(0.100000,-0.100000)"
fill="#000000" stroke="none">
<path d="M3327 8883 c-4 -3 -7 -80 -7 -170 l0 -163 -1020 0 c-561 0 -1020 -3
-1020 -8 0 -4 86 -93 190 -197 l190 -190 0 -2346 0 -2346 29 -99 c25 -83 49
-151 107 -299 4 -11 -43 28 -105 88 -228 217 -595 422 -956 532 -83 25 -267
65 -300 65 -13 0 -15 -59 -13 -447 l3 -447 90 -27 c237 -70 460 -185 687 -356
l98 -74 77 52 c162 109 296 265 386 448 l53 108 62 -121 c199 -391 552 -785
973 -1086 388 -278 897 -517 1461 -685 174 -52 142 -54 388 16 995 280 1694
731 2166 1397 92 129 120 177 194 325 l68 137 41 -82 c59 -122 115 -202 210
-301 86 -90 140 -133 221 -180 l46 -26 90 68 c229 172 478 296 682 341 46 10
85 20 87 22 5 5 7 172 6 562 l-1 358 -47 -7 c-170 -24 -426 -108 -639 -210
-250 -119 -449 -252 -596 -398 -43 -43 -78 -76 -78 -74 0 1 13 36 29 77 16 41
45 132 65 201 l36 127 0 2353 0 2354 180 180 c99 99 180 183 180 187 0 5 -457
8 -1015 8 l-1015 0 -2 168 -3 167 -1136 3 c-624 1 -1139 -1 -1142 -5z m443
-373 l0 -200 -70 0 -70 0 0 136 c0 126 -1 136 -17 129 -39 -16 -127 -45 -135
-45 -4 0 -8 17 -8 39 0 37 2 39 45 51 48 14 135 66 135 81 0 5 27 9 60 9 l60
0 0 -200z m520 173 c76 -39 104 -92 97 -185 -9 -133 -82 -192 -237 -192 -70 0
-92 4 -126 23 -37 21 -71 58 -61 67 2 2 31 7 64 10 53 6 63 4 82 -15 43 -43
112 -18 131 48 9 31 8 33 -13 26 -86 -26 -100 -28 -153 -16 -37 9 -65 23 -89
45 -30 29 -35 40 -35 81 0 41 5 52 34 80 43 40 83 53 177 54 64 1 84 -3 129
-26z m517 8 c78 -36 94 -104 33 -139 -17 -9 -30 -19 -30 -22 0 -4 16 -12 36
-19 23 -8 40 -24 51 -46 15 -30 14 -36 -3 -71 -30 -60 -94 -88 -203 -89 -60 0
-100 5 -133 18 -46 18 -103 71 -93 87 2 4 32 10 66 12 56 4 63 2 89 -24 50
-50 140 -30 140 32 0 38 -32 60 -87 60 -42 0 -43 1 -37 28 10 39 12 42 38 42
33 0 71 33 63 54 -16 41 -96 42 -123 1 -13 -20 -21 -22 -62 -17 -26 3 -55 8
-65 11 -17 6 -17 9 4 35 36 46 92 66 189 66 62 0 96 -6 127 -19z m494 8 c46
-16 89 -57 89 -86 0 -24 -40 -73 -60 -73 -21 0 -9 -18 16 -24 39 -10 74 -50
74 -85 0 -73 -94 -126 -220 -125 -94 1 -150 16 -189 53 -48 45 -41 58 32 63
58 4 64 3 89 -24 35 -37 88 -39 123 -3 30 29 31 35 4 69 -17 21 -29 26 -65 26
-45 0 -45 0 -42 33 3 27 7 32 33 35 33 4 65 28 65 48 0 8 -11 21 -25 30 -30
20 -79 11 -100 -19 -12 -17 -23 -21 -57 -19 -57 4 -78 11 -78 26 0 20 44 56
87 71 47 17 178 19 224 4z m-2523 -667 c7 -21 -117 -118 -220 -172 -43 -22
-48 -29 -54 -68 -8 -52 2 -65 25 -34 51 72 47 69 70 48 24 -22 51 -15 51 13 0
33 11 51 32 51 18 0 20 -4 14 -32 l-6 -32 25 24 c21 19 29 22 43 14 30 -20 18
-38 -53 -81 -57 -35 -74 -52 -92 -91 -21 -43 -29 -82 -18 -82 2 0 40 18 85 39
95 47 135 57 155 41 19 -15 19 -44 2 -59 -8 -6 -57 -24 -110 -39 -53 -16 -107
-36 -121 -46 -29 -18 -41 -54 -32 -91 5 -21 11 -24 31 -19 16 4 35 0 51 -11
36 -24 28 -55 -21 -81 -22 -11 -39 -27 -38 -35 1 -8 7 -65 12 -127 10 -111 6
-147 -21 -179 -15 -19 -64 13 -84 55 -15 32 -15 38 1 87 10 34 14 66 9 89 l-6
36 -24 -25 c-28 -30 -38 -31 -76 -4 -46 33 -36 64 37 108 48 29 61 42 63 65 4
33 -5 76 -16 76 -11 0 -152 -108 -197 -151 -23 -22 -48 -39 -58 -39 -48 0 -79
86 -35 98 12 3 45 18 73 33 27 16 91 48 141 73 l91 44 5 63 c6 75 -4 94 -26
50 -13 -24 -23 -31 -46 -31 -16 0 -32 -4 -35 -10 -9 -15 -51 -12 -64 4 -19 23
4 54 55 76 41 18 44 22 44 57 0 31 -7 44 -31 66 -34 29 -34 50 -1 55 25 4 29
17 7 26 -27 10 -18 62 16 90 52 44 89 30 89 -36 0 -21 5 -38 11 -38 18 0 105
68 123 95 35 54 111 76 124 37z m3799 -118 c18 -14 33 -31 33 -39 0 -8 -16
-27 -36 -42 -118 -90 -90 -91 56 -2 97 58 125 71 138 62 34 -21 25 -57 -34
-139 l-56 -79 34 -6 c46 -7 58 -16 58 -43 0 -23 -49 -75 -107 -115 -21 -14
-33 -31 -33 -45 0 -13 -7 -29 -16 -37 -8 -7 -22 -25 -30 -41 -14 -27 -14 -28
11 -28 15 0 35 5 46 10 15 8 25 7 44 -7 61 -44 37 -85 -53 -88 -33 -1 -65 -5
-70 -9 -7 -4 -10 -48 -7 -126 4 -113 3 -120 -16 -131 -31 -16 -59 -5 -140 57
-40 32 -97 68 -126 81 -63 29 -68 51 -20 87 36 28 149 78 215 95 35 10 42 16
42 36 0 14 0 28 1 33 1 4 -12 6 -29 4 -17 -2 -33 2 -38 9 -11 18 49 67 93 75
63 11 183 90 183 121 0 19 -33 16 -61 -6 -13 -10 -53 -32 -87 -50 -35 -17
-105 -66 -155 -109 -138 -117 -145 -122 -189 -122 -45 0 -59 20 -37 56 8 13
43 56 79 95 37 42 59 74 52 77 -36 12 -50 38 -56 110 -5 61 -4 72 9 72 21 0
65 -30 65 -44 0 -6 5 -18 10 -26 29 -45 42 88 14 146 -9 19 -30 42 -45 50 -16
8 -29 22 -29 30 0 23 37 12 123 -37 l72 -41 22 27 c19 21 22 33 17 66 -8 47 4
50 53 13z m-3228 -49 c50 -53 52 -58 46 -95 -7 -44 -5 -47 29 -25 26 17 51 12
60 -12 6 -15 -24 -47 -155 -167 -69 -63 -50 -72 50 -22 49 25 95 51 102 58 51
50 95 60 123 29 16 -18 16 -23 2 -63 -20 -59 -56 -302 -56 -376 0 -43 -5 -66
-18 -82 l-19 -23 -61 56 c-34 32 -69 57 -77 57 -8 0 -24 -19 -36 -42 -12 -24
-27 -46 -33 -50 -22 -15 -44 -8 -50 17 -4 15 -16 27 -30 31 -41 10 -42 50 -2
83 12 10 13 17 3 33 -10 17 -9 22 11 36 59 43 67 51 59 58 -4 4 -17 -2 -30
-14 -34 -32 -73 -29 -92 8 l-16 30 -38 -20 c-22 -10 -46 -27 -55 -35 -20 -21
-21 -59 -1 -75 11 -9 15 -32 15 -81 0 -66 -1 -69 -27 -75 -30 -8 -58 18 -70
64 -6 24 15 183 26 199 3 4 31 17 61 27 30 10 67 25 82 33 28 14 63 67 54 82
-3 5 -26 11 -52 14 -53 6 -99 35 -99 63 0 16 10 20 60 24 56 5 136 37 150 60
4 6 8 63 10 128 2 64 4 118 4 120 3 11 26 -6 70 -53z m700 16 c53 -27 66 -46
53 -74 -5 -12 -54 -69 -107 -127 -54 -58 -111 -122 -128 -142 -30 -37 -59 -48
-72 -28 -4 6 19 38 50 73 70 76 158 242 144 268 -26 49 -2 61 60 30z m1091
-12 c16 -29 -10 -65 -57 -78 -66 -19 -92 -12 -57 14 13 9 14 16 5 32 -8 16 -8
23 2 31 36 28 93 29 107 1z m587 -52 c55 -62 59 -87 34 -190 -31 -127 -36
-157 -22 -157 18 0 73 30 97 52 23 21 64 17 85 -8 18 -22 1 -34 -110 -84 -100
-45 -121 -64 -121 -112 0 -11 -14 -49 -30 -84 -47 -98 -113 -136 -179 -101
-29 15 -25 33 6 29 52 -6 137 70 149 133 3 20 4 39 0 42 -3 3 -37 -8 -76 -26
-38 -18 -75 -29 -81 -25 -13 7 -39 67 -39 87 0 10 13 14 43 14 23 0 69 6 102
14 92 22 90 11 95 447 0 11 23 -4 47 -31z m-1005 -66 c-2 -19 1 -37 6 -40 6
-4 2 -24 -11 -51 -26 -54 -57 -64 -82 -26 -22 33 -13 72 27 120 38 46 64 45
60 -3z m205 25 c8 -6 -21 -78 -33 -83 -21 -8 -56 4 -89 32 l-30 26 24 20 c20
16 32 18 75 13 28 -4 52 -7 53 -8z m-537 -65 c0 -20 -96 -104 -147 -129 -26
-12 -37 -13 -62 -3 -50 21 -52 55 -3 66 15 3 61 28 102 55 58 39 77 47 92 39
10 -5 18 -18 18 -28z m752 -38 c27 -24 22 -47 -22 -98 -32 -37 -40 -54 -40
-86 0 -43 -19 -60 -45 -39 -24 20 -18 76 12 121 l27 41 -24 18 -24 18 35 21
c41 25 57 26 81 4z m-1079 -73 c-3 -80 -28 -130 -65 -130 -10 0 -21 7 -24 15
-4 8 -17 15 -30 15 -31 0 -31 13 1 34 13 9 36 36 51 61 20 35 32 45 48 43 17
-2 21 -9 19 -38z m762 28 c17 -7 25 -19 25 -35 0 -19 4 -23 19 -18 31 10 36
-15 11 -61 -21 -37 -22 -45 -9 -60 21 -25 11 -64 -27 -106 -29 -33 -34 -45
-35 -91 -1 -65 -13 -154 -23 -164 -28 -28 -73 77 -50 118 15 26 18 69 6 69 -4
0 -31 -16 -59 -35 -29 -19 -56 -35 -61 -35 -18 0 -30 25 -25 50 7 30 74 91 81
72 5 -17 44 -15 68 3 19 14 19 14 -3 15 -29 0 -38 17 -16 29 45 25 46 27 32
49 -11 18 -10 23 12 41 17 15 20 20 8 21 -8 0 -28 -14 -45 -31 -59 -63 -104
-68 -104 -12 0 24 26 43 61 43 17 0 72 26 98 47 3 2 -4 10 -15 17 -18 14 -18
15 -1 33 9 11 17 27 17 36 0 20 2 20 35 5z m-444 -48 c10 -6 19 -20 19 -32 0
-29 -67 -136 -90 -143 -18 -6 -20 -16 -21 -98 0 -115 -11 -184 -33 -205 -14
-15 -17 -15 -32 -1 -12 13 -17 49 -21 168 l-6 152 -22 -21 c-25 -24 -58 -26
-75 -5 -17 20 -5 45 20 45 49 0 90 36 90 80 0 28 27 45 53 33 18 -9 28 -6 52
13 34 27 39 28 66 14z m614 -112 c13 -33 15 -58 9 -116 -5 -58 -4 -76 7 -83
20 -13 120 -11 159 2 l33 12 -7 68 c-4 45 -3 69 4 69 6 0 13 -8 16 -17 3 -10
17 -46 31 -80 19 -48 22 -66 14 -82 -15 -27 -29 -30 -165 -33 l-119 -2 -29 33
c-16 18 -27 38 -25 45 3 7 8 44 12 82 8 83 23 144 34 144 5 0 16 -19 26 -42z
m-940 -60 c-11 -94 -39 -122 -71 -73 -12 19 -14 28 -5 39 6 7 8 21 5 30 -9 23
23 56 53 56 24 0 25 -2 18 -52z m-103 -81 c13 -45 3 -83 -27 -103 -18 -12 -24
-11 -44 3 -23 15 -23 20 -17 101 3 46 9 89 13 95 9 15 62 -51 75 -96z m2013
-120 l78 -13 -55 -47 c-76 -65 -110 -61 -149 16 -12 23 -32 56 -45 73 -44 57
-30 67 34 23 48 -33 73 -43 137 -52z m1167 -2069 l3 -1633 -33 -119 c-46 -165
-101 -308 -183 -471 -67 -135 -103 -195 -112 -185 -2 3 -448 613 -990 1357
l-987 1351 0 576 0 576 -345 0 -345 0 0 -572 0 -573 -980 -1365 c-540 -750
-984 -1368 -989 -1373 -4 -4 -30 26 -56 68 -112 180 -205 384 -275 601 l-40
127 0 1633 0 1634 2664 0 2665 0 3 -1632z m-2813 1333 c68 -41 119 -67 125
-62 23 17 44 19 69 6 24 -12 33 -9 144 61 l118 73 5 -562 5 -562 979 -1340
c538 -737 990 -1354 1003 -1371 l23 -31 -50 -75 c-28 -41 -63 -89 -78 -107
l-27 -32 -1070 1460 -1070 1460 -5 458 -5 458 -3 -455 -2 -455 -1050 -1475
c-578 -811 -1054 -1476 -1059 -1478 -9 -3 -102 106 -151 177 -20 29 -21 36
-10 55 7 11 453 636 991 1388 l979 1367 0 561 c0 446 3 561 13 557 6 -2 63
-37 126 -76z m446 -1962 c149 -206 524 -725 834 -1154 311 -429 622 -860 692
-957 l128 -177 -72 -67 c-115 -108 -261 -220 -419 -324 -156 -103 -204 -128
-217 -114 -13 14 -899 1221 -912 1242 -10 16 19 64 221 357 128 186 233 344
234 351 1 7 -61 96 -137 198 l-139 187 -17 -23 c-10 -13 -100 -144 -201 -293
-102 -148 -201 -294 -221 -323 l-37 -53 -254 345 c-188 256 -256 341 -264 333
-6 -7 -68 -96 -137 -199 l-125 -187 254 -341 c140 -187 254 -343 254 -345 0
-6 -868 -1276 -880 -1289 -16 -16 -297 155 -486 297 -109 81 -252 203 -267
227 -7 12 202 315 934 1353 519 735 948 1335 954 1334 5 -2 131 -172 280 -378z
m-520 -872 c133 -180 245 -331 251 -337 7 -7 86 101 243 330 128 187 236 340
241 340 11 0 106 -129 103 -140 -1 -4 -126 -189 -278 -411 -234 -342 -279
-403 -300 -404 -22 -1 -64 52 -320 403 l-296 405 48 73 c26 41 53 72 58 71 6
-2 118 -151 250 -330z m909 108 c34 -45 54 -80 50 -88 -4 -6 -111 -162 -237
-345 -126 -183 -227 -339 -224 -346 3 -6 215 -297 471 -645 315 -429 463 -638
457 -645 -18 -22 -151 -80 -160 -70 -4 5 -223 303 -486 663 -464 635 -478 656
-479 701 -1 44 10 61 274 448 151 221 276 402 276 402 1 0 27 -34 58 -75z
m-964 -354 c258 -353 273 -376 275 -420 2 -45 -3 -54 -453 -711 -250 -366
-460 -671 -467 -678 -10 -11 -25 -7 -84 22 -39 20 -71 40 -71 45 0 5 201 303
446 662 371 541 445 655 436 669 -6 10 -119 163 -251 340 -133 177 -241 327
-241 333 0 7 23 45 51 85 l51 72 17 -22 c10 -13 141 -191 291 -397z m825
-1127 c267 -365 485 -668 485 -672 0 -5 -38 -26 -85 -47 -64 -28 -89 -35 -97
-27 -7 7 -188 260 -403 564 -216 303 -396 553 -401 555 -5 1 -187 -256 -404
-572 -217 -316 -397 -575 -401 -575 -4 0 -41 16 -83 35 l-77 35 128 188 c702
1029 808 1180 830 1180 18 0 116 -128 508 -664z m-120 -224 c207 -292 378
-537 381 -543 8 -22 -373 -158 -663 -237 -139 -38 -142 -38 -195 -23 -199 55
-641 213 -653 233 -6 10 734 1098 747 1099 3 1 176 -238 383 -529z"/>
<path d="M4123 8640 c-44 -18 -56 -77 -23 -110 44 -44 140 -14 140 43 0 46
-70 86 -117 67z"/>
<path d="M6657 7814 c-28 -19 -37 -30 -32 -42 16 -39 16 -52 -4 -90 -25 -49
-25 -52 -7 -52 13 0 116 178 116 200 0 18 -35 10 -73 -16z"/>
<path d="M6527 7683 c-4 -3 -7 -15 -7 -25 0 -26 24 -17 28 10 3 21 -8 29 -21
15z"/>
<path d="M6391 7624 c-44 -50 -52 -71 -23 -59 9 5 43 17 75 29 58 21 81 53 31
43 -21 -4 -25 -1 -21 14 9 33 -20 21 -62 -27z"/>
<path d="M6459 7565 c-57 -21 -115 -63 -145 -106 -15 -22 -25 -42 -22 -45 6
-5 191 117 223 147 19 19 19 19 0 18 -11 0 -36 -6 -56 -14z"/>
<path d="M6376 7215 c-32 -13 -63 -28 -68 -33 -10 -10 104 -83 148 -96 28 -8
37 23 28 99 -8 65 -17 68 -108 30z"/>
<path d="M3467 7544 c-46 -24 -48 -27 -33 -43 23 -25 21 -28 -30 -83 -39 -42
-44 -51 -32 -65 7 -9 11 -26 10 -38 -2 -13 2 -26 7 -30 6 -3 11 -19 11 -36 0
-23 6 -32 33 -43 17 -7 36 -10 40 -6 11 9 56 273 57 328 0 23 -3 42 -7 42 -5
-1 -30 -12 -56 -26z"/>
<path d="M3288 7454 c-52 -27 -66 -49 -20 -33 32 11 79 46 72 52 -3 3 -26 -6
-52 -19z"/>
<path d="M4307 7522 c-28 -30 -20 -49 8 -22 25 24 32 40 17 40 -5 0 -16 -8
-25 -18z"/>
<path d="M2640 5993 l0 -598 -360 -497 -360 -497 2 -393 3 -393 449 635 c247
349 456 643 465 652 15 15 30 -4 210 -263 106 -153 196 -279 200 -279 8 0 271
377 271 389 0 6 -106 155 -235 332 l-235 322 0 594 0 593 -205 0 -205 0 0
-597z m370 -24 l0 -581 226 -309 c124 -171 227 -316 230 -323 5 -12 -94 -166
-106 -165 -3 0 -102 135 -220 300 -118 166 -219 303 -225 307 -5 3 2 -10 16
-29 120 -160 420 -590 417 -597 -9 -23 -94 -141 -100 -139 -4 1 -93 126 -198
277 -105 151 -194 276 -198 277 -4 1 -203 -275 -442 -613 -239 -339 -438 -618
-442 -621 -5 -2 -8 139 -8 315 l0 318 365 504 365 504 0 578 0 578 160 0 160
0 0 -581z"/>
<path d="M2820 6470 c-25 -25 -25 -33 3 -65 l22 -27 28 22 c33 26 35 53 5 74
-29 20 -34 20 -58 -4z"/>
<path d="M2480 4779 c-250 -355 -371 -518 -383 -519 -33 0 -57 -20 -57 -45 0
-29 39 -59 64 -49 18 7 31 46 22 69 -3 10 127 202 356 528 199 281 366 515
371 518 5 4 5 9 1 12 -5 2 -173 -229 -374 -514z"/>
<path d="M2860 5266 c0 -2 8 -10 18 -17 15 -13 16 -12 3 4 -13 16 -21 21 -21
13z"/>
<path d="M5910 5993 l0 -598 -235 -323 -236 -323 137 -194 c74 -107 139 -195
142 -195 4 0 94 127 201 281 107 154 197 276 202 272 4 -4 211 -296 459 -648
249 -352 457 -644 461 -649 5 -6 9 163 9 385 l0 395 -365 504 -365 504 0 593
0 593 -205 0 -205 0 0 -597z m370 -24 l0 -581 365 -504 365 -504 0 -315 c0
-173 -3 -315 -7 -315 -5 0 -206 280 -447 621 -356 503 -441 618 -451 607 -7
-7 -95 -131 -195 -276 -100 -144 -185 -264 -189 -267 -5 -2 -31 28 -59 68
l-50 73 185 260 c228 320 245 344 240 344 -3 0 -100 -133 -217 -295 -116 -162
-213 -295 -215 -295 -2 0 -29 36 -59 79 l-56 79 235 323 235 322 0 579 0 578
160 0 160 0 0 -581z"/>
<path d="M6088 6479 c-25 -14 -24 -65 2 -79 20 -11 20 -21 20 -561 0 -541 0
-551 -21 -582 l-21 -32 25 28 24 29 357 -505 c244 -347 356 -513 356 -531 0
-30 38 -60 64 -50 54 21 32 98 -27 92 -31 -3 -37 5 -389 502 l-357 505 -1 545
c0 533 0 546 20 563 24 20 26 50 4 71 -18 18 -32 20 -56 5z"/>
<path d="M6049 5203 c-13 -16 -12 -17 4 -4 9 7 17 15 17 17 0 8 -8 3 -21 -13z"/>
<path d="M810 1402 l0 -470 48 -6 c273 -38 560 -119 1327 -372 703 -233 697
-231 903 -289 292 -82 573 -146 837 -189 478 -79 637 -79 1115 0 431 71 821
182 1415 403 625 233 843 306 1110 372 122 30 408 82 523 94 l62 7 0 459 0
460 -32 -5 c-18 -3 -76 -13 -128 -21 -507 -82 -959 -211 -1670 -475 -372 -138
-533 -195 -675 -241 -364 -118 -725 -193 -1055 -218 -127 -9 -296 6 -570 53
-490 83 -871 193 -1795 516 -527 184 -903 293 -1225 355 -74 14 -147 28 -162
31 l-28 6 0 -470z m7123 149 c-11 -11 -34 -60 -51 -109 -27 -81 -29 -94 -20
-147 8 -45 15 -59 31 -63 20 -5 20 -6 1 -13 -10 -4 -34 -8 -53 -8 -28 -1 -31
1 -22 13 8 9 10 32 5 68 -6 43 -18 68 -67 136 -33 46 -66 86 -75 90 -13 5 -12
7 4 13 10 4 34 8 53 8 27 1 31 -2 22 -12 -8 -11 -1 -28 30 -75 23 -34 45 -62
48 -62 4 0 17 30 29 67 20 61 20 69 6 84 -17 19 -18 18 65 27 10 1 8 -4 -6
-17z m-6745 -31 c18 -11 38 -18 44 -14 7 4 8 -5 3 -27 -15 -69 -21 -76 -29
-31 -4 29 -14 47 -31 58 -23 15 -27 15 -50 0 -36 -24 -31 -56 20 -124 57 -76
64 -106 33 -152 -19 -28 -31 -36 -62 -38 -23 -2 -47 3 -63 13 -13 9 -31 14
-40 11 -12 -5 -13 0 -7 27 3 17 10 41 15 52 7 18 8 17 8 -6 2 -60 78 -104 111
-64 23 27 13 63 -34 125 -48 65 -56 96 -33 140 12 23 50 50 72 50 6 0 25 -9
43 -20z m6448 -44 l7 -29 -22 22 c-17 17 -29 21 -49 16 -15 -4 -28 -8 -29 -9
-4 -4 55 -275 62 -286 3 -6 14 -10 23 -11 19 -1 -14 -12 -68 -23 -31 -6 -32
-5 -15 7 18 14 18 18 -10 150 -15 75 -31 141 -35 147 -12 19 -63 -10 -70 -40
-6 -24 -7 -24 -14 8 -4 18 -5 36 -1 40 10 11 199 50 207 43 4 -3 10 -19 14
-35z m-6161 -49 c81 -81 40 -257 -72 -304 -151 -62 -219 202 -81 311 50 39
110 36 153 -7z m5881 18 c-8 -9 -13 -21 -11 -28 2 -7 15 -61 30 -122 32 -135
40 -155 62 -155 29 -1 -4 -17 -52 -26 -36 -6 -39 -6 -27 9 12 14 9 36 -18 149
-21 90 -38 138 -51 150 -18 15 -18 16 19 26 57 15 66 15 48 -3z m-141 -79 l14
-47 -33 36 c-38 40 -54 43 -87 16 -20 -16 -22 -23 -14 -47 8 -23 24 -34 80
-57 79 -31 115 -65 115 -107 0 -65 -37 -100 -105 -100 -20 0 -35 -5 -35 -12 0
-20 -8 -4 -23 50 l-16 52 33 -35 c18 -19 42 -35 52 -35 30 0 64 29 64 54 0 35
-20 53 -94 82 -78 31 -110 68 -101 119 8 46 50 78 92 70 23 -4 33 -2 33 6 0
22 11 2 25 -45z m-5581 32 c49 -14 69 -28 38 -28 -18 0 -25 -11 -42 -71 -51
-171 -51 -220 0 -238 38 -13 73 -1 93 31 17 26 67 196 67 225 0 11 -5 24 -11
30 -9 9 -1 9 30 1 36 -9 39 -12 24 -23 -9 -7 -35 -68 -57 -136 -36 -110 -45
-126 -73 -142 -57 -33 -134 -1 -150 61 -4 18 5 70 26 152 31 117 31 125 15
137 -22 16 -13 16 40 1z m363 -105 c98 -30 105 -37 83 -88 -8 -18 -9 -17 -9 8
-1 22 -8 31 -33 42 -18 7 -34 12 -35 11 -6 -6 -83 -265 -83 -280 0 -9 5 -16
10 -16 6 0 10 -4 10 -9 0 -5 -23 -2 -51 7 -40 13 -46 18 -31 23 11 4 25 23 30
41 67 211 74 241 61 249 -25 15 -58 10 -73 -13 -19 -27 -20 -22 -5 21 6 17 16
31 22 31 7 0 54 -12 104 -27z m4948 21 c19 -8 45 -55 45 -82 0 -11 -10 -31
-21 -46 l-21 -27 53 -50 c30 -27 66 -52 81 -55 32 -7 29 -19 -8 -28 -21 -6
-36 3 -94 54 -37 33 -73 60 -79 60 -15 0 -13 -26 8 -85 13 -37 24 -51 42 -56
21 -5 19 -7 -19 -18 -24 -7 -51 -15 -60 -18 -16 -6 -16 -6 0 10 19 20 16 33
-45 208 -25 74 -36 94 -50 93 -28 -3 -10 9 41 28 50 17 100 22 127 12z m-216
-86 c11 -30 10 -30 -7 -15 -10 10 -28 17 -40 17 -17 0 -64 -15 -81 -26 -4 -4
30 -107 39 -117 4 -5 24 -2 44 7 26 11 36 21 37 38 0 18 4 15 19 -17 23 -49
26 -77 7 -50 -11 14 -21 16 -50 11 -20 -4 -39 -11 -42 -17 -7 -10 22 -106 37
-126 7 -9 20 -8 55 5 37 14 49 24 59 52 l12 35 1 -41 1 -41 -88 -32 c-103 -36
-106 -37 -90 -12 9 15 3 43 -36 155 -41 115 -51 136 -69 136 -31 0 -19 7 69
39 102 38 110 38 123 -1z m-4543 5 c43 -15 46 -18 25 -23 -19 -4 -29 -18 -43
-60 -10 -30 -17 -59 -14 -65 2 -6 27 -18 55 -27 l51 -16 14 32 c24 58 29 96
14 113 -12 15 -10 16 14 10 15 -4 40 -12 55 -18 27 -11 27 -11 7 -19 -17 -7
-31 -37 -63 -132 -42 -127 -49 -168 -29 -168 6 0 9 -3 5 -6 -7 -7 -78 15 -92
29 -7 7 -6 8 1 4 7 -4 17 -1 23 7 18 22 50 125 41 131 -17 11 -103 34 -110 30
-4 -2 -15 -31 -25 -64 -15 -52 -16 -63 -4 -77 13 -16 12 -17 -13 -11 -15 4
-40 12 -55 19 -26 11 -27 12 -6 15 21 4 44 62 108 270 2 7 -3 19 -11 28 -20
19 -9 19 52 -2z m4304 -68 c-10 -11 -11 -53 -5 -180 4 -91 3 -165 -1 -165 -5
0 -56 59 -113 130 -72 89 -111 130 -125 130 -27 0 -11 13 42 33 41 16 53 12
31 -10 -7 -7 13 -39 67 -107 42 -53 78 -95 81 -92 3 3 2 57 -2 121 -7 106 -9
117 -29 125 -21 8 -21 8 4 18 62 23 71 23 50 -3z m-3817 -89 c27 -18 38 -21
47 -13 10 9 12 8 7 -5 -3 -9 -9 -33 -13 -52 -9 -51 -24 -55 -24 -7 0 31 -6 44
-26 60 -69 54 -143 -4 -174 -136 -16 -72 -1 -118 47 -141 33 -16 36 -16 74 5
44 24 52 18 12 -11 -32 -23 -94 -24 -129 -2 -71 47 -70 181 4 266 56 66 113
78 175 36z m3527 -11 c-10 -12 -6 -31 18 -97 71 -195 72 -198 95 -199 19 -1
18 -3 -8 -14 -16 -7 -41 -16 -55 -20 -22 -7 -23 -6 -12 8 11 13 6 35 -31 139
-25 68 -48 131 -52 140 -4 9 -16 18 -28 20 -17 3 -11 7 23 20 57 21 65 21 50
3z m-3358 -58 c-16 -7 -52 -92 -52 -124 0 -7 92 -43 112 -43 3 0 14 30 24 67
13 50 15 68 6 71 -7 2 -12 7 -12 12 0 4 23 1 51 -8 40 -13 46 -18 30 -23 -15
-6 -31 -42 -65 -146 -41 -127 -44 -139 -29 -155 20 -22 18 -22 -42 -1 -40 13
-45 17 -29 24 23 8 64 124 48 138 -12 11 -73 31 -94 31 -24 0 -59 -114 -42
-140 10 -17 9 -17 -39 -2 -40 13 -46 18 -31 23 15 6 31 41 61 131 44 131 48
157 29 176 -6 6 10 4 41 -6 44 -14 50 -18 33 -25z m3240 21 c-18 -18 -16 -31
39 -180 28 -77 49 -141 47 -144 -3 -2 -59 37 -127 87 -67 51 -123 90 -125 88
-2 -2 15 -52 36 -111 34 -90 44 -108 62 -109 18 -1 16 -3 -9 -14 -43 -20 -58
-19 -44 3 8 13 1 44 -35 141 -26 69 -52 128 -59 133 -21 13 -57 9 -64 -8 -3
-9 11 -69 32 -134 40 -122 41 -148 7 -190 -24 -30 -101 -39 -136 -17 -23 15
-36 45 -100 220 -14 36 -23 47 -39 47 -14 1 -3 9 28 20 60 24 71 25 51 5 -16
-17 -14 -27 32 -156 43 -120 75 -149 131 -118 49 28 50 58 6 187 -35 101 -43
117 -65 122 -20 5 -11 11 52 33 42 15 78 27 80 27 3 0 56 -38 118 -85 62 -47
115 -83 117 -82 2 2 -12 46 -31 98 -23 65 -40 97 -55 105 -21 11 -21 12 16 27
47 20 50 20 35 5z m-2971 -89 c38 -12 40 -14 19 -19 -21 -5 -29 -22 -67 -145
-39 -129 -41 -140 -26 -157 15 -17 14 -17 -38 -2 -62 18 -71 24 -41 24 19 0
27 17 62 128 43 138 47 161 28 181 -11 11 -10 13 3 8 10 -3 36 -11 60 -18z
m86 -29 c28 -10 32 -18 68 -151 21 -76 42 -136 45 -132 4 5 19 50 35 102 22
75 26 98 16 112 -13 22 -6 23 39 7 31 -10 32 -12 13 -19 -17 -6 -30 -34 -58
-126 -56 -183 -57 -185 -61 -180 -3 3 -24 71 -48 152 -24 82 -45 144 -48 139
-3 -5 -20 -56 -38 -113 -31 -101 -31 -105 -14 -119 17 -13 16 -13 -16 -7 -48
10 -73 24 -43 25 20 0 27 15 64 133 39 125 41 133 26 160 -9 15 -15 27 -13 27
2 0 16 -5 33 -10z m383 -147 c1 -105 21 -297 32 -310 11 -14 8 -15 -22 -8 -19
4 -44 11 -55 16 -17 6 -17 8 -3 8 22 1 31 36 20 75 -6 23 -17 32 -52 42 -43
13 -46 12 -63 -9 -25 -32 -32 -67 -16 -79 9 -6 2 -7 -21 -2 -50 9 -53 13 -27
34 13 10 61 75 106 144 46 69 88 126 92 126 5 0 9 -17 9 -37z m1746 -2 c-16
-18 -15 -26 27 -152 42 -129 45 -134 70 -132 46 3 80 26 93 63 l12 35 1 -47 1
-47 -87 -27 c-49 -15 -95 -29 -103 -32 -9 -3 -7 2 4 10 19 15 19 18 -24 153
-28 85 -51 142 -62 149 -16 9 -12 13 29 28 27 9 50 17 52 17 2 1 -4 -7 -13
-18z m-1461 -34 c1 -1 23 -58 49 -127 26 -69 51 -128 55 -133 4 -4 18 41 30
100 21 102 22 108 5 120 -17 12 -17 13 2 12 10 -1 30 -4 44 -8 23 -6 24 -8 7
-17 -14 -8 -26 -46 -48 -150 -36 -169 -37 -174 -49 -154 -4 8 -29 71 -55 140
-26 69 -51 128 -54 132 -4 4 -17 -45 -30 -109 -24 -114 -24 -116 -5 -130 17
-13 15 -14 -21 -8 -42 8 -72 25 -43 25 24 0 28 10 54 129 28 129 29 149 7 174
-18 20 -17 20 16 13 19 -3 35 -7 36 -9z m1325 -158 c50 -86 91 -144 104 -149
18 -7 16 -9 -19 -19 -57 -16 -71 -15 -55 4 9 11 7 22 -11 54 -20 36 -25 39
-53 34 -70 -13 -76 -19 -76 -68 0 -36 4 -45 17 -45 26 0 3 -17 -34 -25 l-32
-6 13 28 c8 15 22 99 32 185 10 86 21 155 24 153 4 -3 45 -68 90 -146z m-254
96 c-18 -14 -19 -20 -7 -132 17 -162 21 -175 44 -181 20 -5 20 -6 1 -13 -10
-4 -37 -8 -58 -8 -35 -1 -38 1 -22 12 16 12 16 21 5 122 -7 61 -15 113 -18
117 -4 4 -20 -50 -35 -120 -16 -70 -32 -131 -36 -135 -4 -5 -37 49 -73 120
-37 70 -66 121 -66 113 0 -8 6 -62 14 -120 8 -58 15 -108 15 -112 0 -5 7 -8
16 -8 8 0 12 -4 9 -10 -3 -5 -23 -10 -43 -10 -31 0 -34 2 -19 13 17 12 17 20
0 151 -13 112 -21 142 -37 157 -20 19 -19 19 20 19 l40 0 59 -120 c33 -66 62
-116 66 -112 3 4 19 64 34 134 l28 127 31 4 c17 2 36 4 41 5 6 1 1 -5 -9 -13z
m-672 -16 c82 -64 85 -207 6 -290 -32 -34 -43 -39 -82 -39 -57 0 -91 25 -114
85 -20 55 -15 140 13 188 42 70 125 97 177 56z m249 -21 c57 -30 64 -93 16
-140 l-31 -31 24 -50 c12 -28 35 -64 51 -80 15 -16 26 -31 25 -32 -2 -2 -16
-1 -33 2 -26 4 -36 16 -71 81 -52 97 -68 99 -72 12 -2 -52 0 -67 14 -77 15
-11 9 -13 -41 -13 -55 0 -58 1 -39 15 19 13 22 28 29 157 6 130 6 143 -11 155
-15 11 -8 13 50 13 37 0 77 -5 89 -12z"/>
<path d="M1351 1416 c-33 -35 -61 -119 -61 -182 0 -45 4 -59 25 -79 29 -30 54
-32 87 -5 61 48 96 222 54 269 -26 29 -76 28 -105 -3z"/>
<path d="M6852 1291 c-11 -7 -11 -19 3 -70 10 -34 22 -64 27 -67 5 -3 20 2 33
10 20 13 25 25 25 56 0 60 -47 98 -88 71z"/>
<path d="M3500 670 c-18 -28 -31 -52 -29 -54 2 -2 21 -9 42 -14 l37 -10 0 58
c0 32 -4 61 -9 64 -5 3 -24 -17 -41 -44z"/>
<path d="M5095 569 c-4 -33 -5 -62 -2 -65 8 -8 77 7 77 17 0 9 -59 109 -65
109 -2 0 -6 -27 -10 -61z"/>
<path d="M4157 632 c-31 -34 -47 -90 -47 -166 0 -64 3 -79 23 -102 29 -33 69
-35 102 -4 60 56 60 261 0 284 -30 11 -62 6 -78 -12z"/>
<path d="M4430 573 c0 -27 -3 -58 -6 -70 -6 -20 -3 -23 23 -23 39 0 63 28 63
73 0 41 -21 67 -56 67 -22 0 -24 -4 -24 -47z"/>
</g>
</svg>
